<svg width="50" height="50" viewBox="0 0 50 50" fill="none" xmlns="http://www.w3.org/2000/svg">
<rect width="50" height="50" rx="12" fill="#7FD6FF"/>
<path d="M23.4883 19.1289L20.2478 13.7284C20.1146 13.5063 19.9261 13.3224 19.7006 13.1948C19.4752 13.0671 19.2206 13 18.9615 13H13.7514C13.1443 13 12.789 13.683 13.1368 14.1803L18.3526 21.6316C19.7458 20.3298 21.5176 19.4364 23.4883 19.1289ZM36.2486 13H31.0385C30.5116 13 30.0231 13.2766 29.7522 13.7284L26.5117 19.1289C28.4824 19.4364 30.2542 20.3298 31.6474 21.6311L36.8632 14.1803C37.211 13.683 36.8557 13 36.2486 13ZM25 20.5C20.4437 20.5 16.75 24.1938 16.75 28.75C16.75 33.3062 20.4437 37 25 37C29.5563 37 33.25 33.3062 33.25 28.75C33.25 24.1938 29.5563 20.5 25 20.5ZM29.3369 27.8716L27.5589 29.6041L27.9794 32.0519C28.0544 32.4906 27.5922 32.8258 27.1989 32.6186L25 31.4631L22.8016 32.6186C22.4078 32.8272 21.9461 32.4902 22.0211 32.0519L22.4416 29.6041L20.6636 27.8716C20.3439 27.5603 20.5206 27.017 20.9612 26.9533L23.4189 26.5952L24.5172 24.3677C24.6161 24.167 24.8073 24.0681 24.9991 24.0681C25.1917 24.0681 25.3844 24.1684 25.4833 24.3677L26.5816 26.5952L29.0392 26.9533C29.4799 27.017 29.6566 27.5603 29.3369 27.8716V27.8716Z" fill="#2F94C3"/>
</svg>
