<svg width="100" height="100" viewBox="0 0 100 100" fill="none" xmlns="http://www.w3.org/2000/svg">
<path d="M0 50C0 22.3858 22.3858 0 50 0C77.6142 0 100 22.3858 100 50C100 77.6142 77.6142 100 50 100C22.3858 100 0 77.6142 0 50Z" fill="#80D7FF"/>
<path d="M50 19C32.875 19 19 32.875 19 50C19 67.125 32.875 81 50 81C67.125 81 81 67.125 81 50C81 32.875 67.125 19 50 19ZM61.5612 58.125L59.0612 61.25C58.8972 61.4551 58.6943 61.6259 58.4643 61.7526C58.2342 61.8793 57.9814 61.9595 57.7204 61.9885C57.4593 62.0175 57.1951 61.9948 56.9428 61.9218C56.6905 61.8487 56.4551 61.7266 56.25 61.5625L47.875 55.3475C47.2898 54.879 46.8175 54.2849 46.4929 53.6092C46.1684 52.9334 45.9999 52.1934 46 51.4437V32C46 31.4696 46.2107 30.9609 46.5858 30.5858C46.9609 30.2107 47.4696 30 48 30H52C52.5304 30 53.0391 30.2107 53.4142 30.5858C53.7893 30.9609 54 31.4696 54 32V50L61.25 55.3125C61.4552 55.4767 61.626 55.6797 61.7528 55.9099C61.8795 56.1401 61.9596 56.3931 61.9885 56.6542C62.0174 56.9154 61.9945 57.1798 61.9212 57.4321C61.8479 57.6845 61.7256 57.9199 61.5612 58.125Z" fill="#2F94C3"/>
</svg>
