<svg width="24" height="24" viewBox="0 0 24 24" fill="none" xmlns="http://www.w3.org/2000/svg">
<path d="M7.142e-07 2.304C7.142e-07 1.49752 7.15256e-07 1.09429 0.156951 0.786254C0.295009 0.5153 0.515301 0.295008 0.786254 0.156951C1.09429 0 1.49752 0 2.304 0H9.456C10.2625 0 10.6657 0 10.9737 0.156951C11.2447 0.295008 11.465 0.5153 11.6031 0.786254C11.76 1.09429 11.76 1.49752 11.76 2.304V6.336C11.76 7.14248 11.76 7.54571 11.6031 7.85375C11.465 8.1247 11.2447 8.34499 10.9737 8.48305C10.6657 8.64 10.2625 8.64 9.456 8.64H2.304C1.49752 8.64 1.09429 8.64 0.786254 8.48305C0.515301 8.34499 0.295009 8.1247 0.156951 7.85375C7.15256e-07 7.54571 7.142e-07 7.14248 7.142e-07 6.336V2.304Z" fill="#2F94C3"/>
<path d="M24 21.696C24 22.5025 24 22.9057 23.843 23.2137C23.705 23.4847 23.4847 23.705 23.2137 23.843C22.9057 24 22.5025 24 21.696 24H14.544C13.7375 24 13.3343 24 13.0263 23.8431C12.7553 23.705 12.535 23.4847 12.397 23.2137C12.24 22.9057 12.24 22.5025 12.24 21.696L12.24 17.664C12.24 16.8575 12.24 16.4543 12.397 16.1463C12.535 15.8753 12.7553 15.655 13.0263 15.517C13.3343 15.36 13.7375 15.36 14.544 15.36L21.696 15.36C22.5025 15.36 22.9057 15.36 23.2137 15.517C23.4847 15.655 23.705 15.8753 23.843 16.1463C24 16.4543 24 16.8575 24 17.664V21.696Z" fill="#2F94C3"/>
<path d="M12.72 2.304C12.72 1.49752 12.72 1.09429 12.877 0.786254C13.015 0.5153 13.2353 0.295008 13.5063 0.156951C13.8143 0 14.2175 0 15.024 0H21.696C22.5025 0 22.9057 0 23.2137 0.156951C23.4847 0.295008 23.705 0.5153 23.843 0.786254C24 1.09429 24 1.49752 24 2.304V11.616C24 12.4225 24 12.8257 23.843 13.1337C23.705 13.4047 23.4847 13.625 23.2137 13.763C22.9057 13.92 22.5025 13.92 21.696 13.92H15.024C14.2175 13.92 13.8143 13.92 13.5063 13.763C13.2353 13.625 13.015 13.4047 12.877 13.1337C12.72 12.8257 12.72 12.4225 12.72 11.616V2.304Z" fill="#2F94C3"/>
<path d="M11.28 21.696C11.28 22.5025 11.28 22.9057 11.123 23.2137C10.985 23.4847 10.7647 23.705 10.4937 23.843C10.1857 24 9.78248 24 8.976 24H2.304C1.49752 24 1.09429 24 0.786253 23.843C0.5153 23.705 0.295008 23.4847 0.15695 23.2137C-1.00136e-07 22.9057 -7.04099e-08 22.5025 0 21.696L8.14175e-07 12.384C8.8468e-07 11.5775 9.29832e-07 11.1743 0.156952 10.8663C0.295009 10.5953 0.515301 10.375 0.786255 10.237C1.09429 10.08 1.49753 10.08 2.304 10.08L8.976 10.08C9.78248 10.08 10.1857 10.08 10.4937 10.237C10.7647 10.375 10.985 10.5953 11.1231 10.8663C11.28 11.1743 11.28 11.5775 11.28 12.384L11.28 21.696Z" fill="#2F94C3"/>
</svg>
