<svg width="100" height="100" viewBox="0 0 100 100" fill="none" xmlns="http://www.w3.org/2000/svg">
<path d="M0 50C0 22.3858 22.3858 0 50 0C77.6142 0 100 22.3858 100 50C100 77.6142 77.6142 100 50 100C22.3858 100 0 77.6142 0 50Z" fill="#80D7FF"/>
<path d="M79.8254 42.3547C80.2977 41.9793 81 42.3305 81 42.9238V67.6875C81 70.8965 78.3965 73.5 75.1875 73.5H24.8125C21.6035 73.5 19 70.8965 19 67.6875V42.9359C19 42.3305 19.6902 41.9914 20.1746 42.3668C22.8871 44.4738 26.4836 47.15 38.8352 56.123C41.3902 57.9879 45.7012 61.9113 50 61.8871C54.323 61.9234 58.7187 57.9152 61.177 56.123C73.5285 47.15 77.1129 44.4617 79.8254 42.3547ZM50 58C52.8094 58.0484 56.8539 54.4641 58.8883 52.9867C74.9574 41.3254 76.1805 40.3082 79.8859 37.402C80.5883 36.857 81 36.0094 81 35.1133V32.8125C81 29.6035 78.3965 27 75.1875 27H24.8125C21.6035 27 19 29.6035 19 32.8125V35.1133C19 36.0094 19.4117 36.8449 20.1141 37.402C23.8195 40.2961 25.0426 41.3254 41.1117 52.9867C43.1461 54.4641 47.1906 58.0484 50 58Z" fill="#2F94C3"/>
</svg>
