<svg width="20" height="24" viewBox="0 0 20 24" fill="none" xmlns="http://www.w3.org/2000/svg">
<path d="M11.6667 6.375V0H1.25C0.557292 0 0 0.501562 0 1.125V22.875C0 23.4984 0.557292 24 1.25 24H18.75C19.4427 24 20 23.4984 20 22.875V7.5H12.9167C12.2292 7.5 11.6667 6.99375 11.6667 6.375ZM15 17.4375C15 17.7469 14.7187 18 14.375 18H5.625C5.28125 18 5 17.7469 5 17.4375V17.0625C5 16.7531 5.28125 16.5 5.625 16.5H14.375C14.7187 16.5 15 16.7531 15 17.0625V17.4375ZM15 14.4375C15 14.7469 14.7187 15 14.375 15H5.625C5.28125 15 5 14.7469 5 14.4375V14.0625C5 13.7531 5.28125 13.5 5.625 13.5H14.375C14.7187 13.5 15 13.7531 15 14.0625V14.4375ZM15 11.0625V11.4375C15 11.7469 14.7187 12 14.375 12H5.625C5.28125 12 5 11.7469 5 11.4375V11.0625C5 10.7531 5.28125 10.5 5.625 10.5H14.375C14.7187 10.5 15 10.7531 15 11.0625ZM20 5.71406V6H13.3333V0H13.651C13.9844 0 14.3021 0.117188 14.5365 0.328125L19.6354 4.92188C19.8698 5.13281 20 5.41875 20 5.71406Z" fill="#8A9499"/>
</svg>
