<svg width="20" height="24" viewBox="0 0 20 24" fill="none" xmlns="http://www.w3.org/2000/svg">
<path d="M17.5 3H13.3333C13.3333 1.34531 11.8385 0 10 0C8.16146 0 6.66667 1.34531 6.66667 3H2.5C1.11979 3 0 4.00781 0 5.25V21.75C0 22.9922 1.11979 24 2.5 24H17.5C18.8802 24 20 22.9922 20 21.75V5.25C20 4.00781 18.8802 3 17.5 3ZM10 1.875C10.6927 1.875 11.25 2.37656 11.25 3C11.25 3.62344 10.6927 4.125 10 4.125C9.30729 4.125 8.75 3.62344 8.75 3C8.75 2.37656 9.30729 1.875 10 1.875ZM16.3125 12.7406L8.86458 19.3875C8.61979 19.6078 8.22396 19.6031 7.97917 19.3828L3.67708 15.4781C3.43229 15.2578 3.4375 14.9016 3.68229 14.6813L5.16146 13.3594C5.40625 13.1391 5.80208 13.1438 6.04687 13.3641L8.44271 15.5391L13.9635 10.6078C14.2083 10.3875 14.6042 10.3922 14.849 10.6125L16.3177 11.9438C16.5625 12.1688 16.5573 12.5203 16.3125 12.7406Z" fill="#8A9499"/>
</svg>
