<svg width="24" height="20" viewBox="0 0 24 20" fill="none" xmlns="http://www.w3.org/2000/svg">
<path d="M7.8 12.5H22.2C22.53 12.5 22.8 12.2188 22.8 11.875V1.875C22.8 1.53125 22.53 1.25 22.2 1.25H16.8V6.25L15 5L13.2 6.25V1.25H7.8C7.47 1.25 7.2 1.53125 7.2 1.875V11.875C7.2 12.2188 7.47 12.5 7.8 12.5ZM23.4 15H4.8V0.625C4.8 0.28125 4.53 0 4.2 0H0.6C0.27 0 0 0.28125 0 0.625V1.875C0 2.21875 0.27 2.5 0.6 2.5H2.4V16.875C2.4 17.2188 2.67 17.5 3 17.5H6.10875C6.04125 17.6953 6 17.9063 6 18.125C6 19.1602 6.80625 20 7.8 20C8.79375 20 9.6 19.1602 9.6 18.125C9.6 17.9063 9.555 17.6953 9.49125 17.5H16.9125C16.845 17.6953 16.8038 17.9063 16.8038 18.125C16.8038 19.1602 17.61 20 18.6038 20C19.5975 20 20.4037 19.1602 20.4037 18.125C20.4037 17.9063 20.3588 17.6953 20.295 17.5H23.4C23.73 17.5 24 17.2188 24 16.875V15.625C24 15.2812 23.73 15 23.4 15Z" fill="#8A9499"/>
</svg>
