<svg width="1023" height="700" viewBox="0 0 1023 700" fill="none" xmlns="http://www.w3.org/2000/svg">
<path d="M594.367 103.491C528.789 101.406 466.322 81.989 406.682 60.7528C347.042 39.5165 287.951 15.9583 223.938 4.73231C182.763 -2.50794 135.686 -3.49525 102.508 16.7079C70.5921 36.1798 60.2709 69.8031 54.726 101.004C50.5536 124.471 48.1014 149.172 59.5297 171.148C67.472 186.397 81.563 199.223 91.3078 213.831C125.227 264.677 101.254 327.371 64.4982 377.011C47.2596 400.267 27.2668 422.518 13.9626 447.302C0.658478 472.085 -5.48119 500.497 6.14849 525.783C17.6867 550.85 45.1733 569.664 74.9567 582.919C135.439 609.814 206.717 617.511 276.257 621.872C430.06 631.553 584.696 627.339 738.992 623.161C796.079 621.607 853.368 620.044 909.576 611.944C940.76 607.446 972.959 600.316 995.587 583.093C1024.34 561.235 1031.45 524.211 1012.19 496.804C979.894 450.821 890.572 439.394 867.989 390.056C855.536 362.887 868.346 332.619 886.399 307.442C925.14 253.406 990.087 205.969 993.509 144.226C995.861 101.799 964.641 59.3084 916.366 39.2331C865.766 18.2072 795.585 20.84 758.262 55.6883C719.823 91.533 652.278 105.337 594.367 103.491Z" fill="#2F94C3"/>
<path d="M590.136 116.407C527.121 114.405 467.096 95.754 409.787 75.3557C352.478 54.9573 295.696 32.3287 234.185 21.5456C194.62 14.591 149.383 13.6427 117.501 33.0487C86.8331 51.7523 76.9153 84.0489 71.5871 114.019C67.5778 136.56 65.2214 160.286 76.203 181.395C83.8349 196.042 97.3752 208.362 106.739 222.394C139.332 271.234 116.296 331.454 80.9773 379.135C64.4125 401.474 45.2011 422.847 32.4169 446.653C19.6327 470.458 13.733 497.749 24.9082 522.037C35.9954 546.115 62.4077 564.187 91.0271 576.919C149.145 602.753 217.637 610.146 284.459 614.335C432.251 623.634 580.843 619.586 729.109 615.573C783.965 614.08 839.015 612.579 893.026 604.799C922.991 600.478 953.931 593.63 975.675 577.086C1003.3 556.091 1010.14 520.527 991.629 494.202C960.595 450.033 874.765 439.057 853.064 391.666C841.098 365.569 853.407 336.495 870.755 312.311C907.981 260.407 970.39 214.842 973.678 155.535C975.938 114.782 945.939 73.9683 899.55 54.6851C850.928 34.4888 783.49 37.0178 747.626 70.4911C710.689 104.921 645.784 118.181 590.136 116.407Z" fill="#006095" fill-opacity="0.3"/>
<path opacity="0.1" d="M734.655 700C799.844 700 852.691 691.405 852.691 680.802C852.691 670.2 799.844 661.605 734.655 661.605C669.466 661.605 616.62 670.2 616.62 680.802C616.62 691.405 669.466 700 734.655 700Z" fill="#6C63FF"/>
<path d="M270.283 356.125L269.99 372.251L267.592 502.996L247.087 550.981L176.412 551.785V363.548L250.171 357.716L270.283 356.125Z" fill="#5F5D7E"/>
<path opacity="0.1" d="M270.283 356.125L269.99 372.251L267.592 502.996L247.087 550.981L176.412 551.785V363.548L250.171 357.716L270.283 356.125Z" fill="black"/>
<path d="M270.283 356.125L269.99 372.251L267.592 502.996L247.087 550.981L252.486 372.562L252.467 372.443L250.171 357.716L270.283 356.125Z" fill="#5F5D7E"/>
<path opacity="0.1" d="M250.171 357.716L270.283 356.125L269.99 372.251L252.467 372.443L176.412 373.293V363.548L250.171 357.716Z" fill="black"/>
<path d="M905.559 363.548V550.697H889.108L823.282 502.731V358.273L882.09 352.752L885.695 354.406L889.108 355.979L905.559 363.548Z" fill="#5F5D7E"/>
<path opacity="0.1" d="M905.56 354.406H889.108V550.697H905.56V354.406Z" fill="black"/>
<path opacity="0.1" d="M905.559 354.406V365.166L889.108 365.358L823.282 366.08V358.273L882.09 352.752L885.695 354.406L889.108 355.979V354.406H905.559Z" fill="black"/>
<path d="M905.559 348.3V363.548L97.1092 372.562V353.154L173.173 337.787L835.15 332.942L905.559 348.3Z" fill="#5F5D7E"/>
<path opacity="0.1" d="M905.559 348.3V363.548L97.1092 372.562V353.154L905.559 348.3Z" fill="black"/>
<path opacity="0.1" d="M234.872 345.036C255 345.036 271.316 343.992 271.316 342.705C271.316 341.417 255 340.374 234.872 340.374C214.744 340.374 198.427 341.417 198.427 342.705C198.427 343.992 214.744 345.036 234.872 345.036Z" fill="black"/>
<path d="M265.46 252.577C264.689 253.642 264.073 254.812 263.63 256.051C263.521 256.352 263.411 256.7 263.301 257.029C263.094 256.93 262.876 256.856 262.651 256.809C261.711 256.569 260.737 256.482 259.769 256.553C259.769 256.182 259.787 255.788 259.824 255.374C259.943 251.114 259.44 245.172 255.368 247.686C251.47 250.108 254.252 254.14 256.768 256.745C256.988 256.974 257.207 257.184 257.418 257.385C255.121 259.031 254.673 262.825 254.297 266.792C253.922 270.76 250.546 275.111 248.313 277.579L247.673 278.265C246.769 277.541 245.722 277.017 244.6 276.729C243.479 276.44 242.308 276.394 241.167 276.592C241.063 276.245 240.963 275.879 240.865 275.495C239.035 268.959 235.293 257.632 230.489 255.145L231.12 254.35C233.161 251.681 235.458 247.722 232.035 246.708C228.613 245.693 228.375 250.145 228.531 253.473C228.531 253.893 228.586 254.286 228.622 254.661C227.949 254.696 227.29 254.868 226.684 255.165C226.079 255.462 225.54 255.878 225.1 256.389C224.935 256.188 224.77 255.987 224.578 255.767C221.833 252.522 216.782 247.384 215.254 251.279C213.836 254.935 218.274 259.598 221.403 262.322L221.595 262.495C219.5 270.997 228.65 277.927 233.582 280.953L234.213 281.346C227.415 289.345 223.233 304.346 223.233 304.346L242.265 307.747C242.265 307.747 254.883 296.868 253.245 286.648H253.373C265.982 284.125 268.855 270.686 266.888 262.715L267.117 262.623C269.41 261.678 271.421 260.157 272.954 258.208C276.486 253.299 269.084 247.768 265.46 252.577Z" fill="#006095"/>
<path opacity="0.1" d="M265.46 252.577C264.689 253.642 264.073 254.812 263.63 256.051C263.521 256.352 263.411 256.7 263.301 257.029C263.094 256.93 262.876 256.856 262.651 256.809C261.711 256.569 260.737 256.482 259.769 256.553C259.769 256.182 259.787 255.788 259.824 255.374C259.943 251.114 259.44 245.172 255.368 247.686C251.47 250.108 254.252 254.14 256.768 256.745C256.988 256.974 257.207 257.184 257.418 257.385C255.121 259.031 254.673 262.825 254.297 266.792C253.922 270.76 250.546 275.111 248.313 277.579L247.673 278.265C246.769 277.541 245.722 277.017 244.6 276.729C243.479 276.44 242.308 276.394 241.167 276.592C241.063 276.245 240.963 275.879 240.865 275.495C239.035 268.959 235.293 257.632 230.489 255.145L231.12 254.35C233.161 251.681 235.458 247.722 232.035 246.708C228.613 245.693 228.375 250.145 228.531 253.473C228.531 253.893 228.586 254.286 228.622 254.661C227.949 254.696 227.29 254.868 226.684 255.165C226.079 255.462 225.54 255.878 225.1 256.389C224.935 256.188 224.77 255.987 224.578 255.767C221.833 252.522 216.782 247.384 215.254 251.279C213.836 254.935 218.274 259.598 221.403 262.322L221.595 262.495C219.5 270.997 228.65 277.927 233.582 280.953L234.213 281.346C227.415 289.345 223.233 304.346 223.233 304.346L242.265 307.747C242.265 307.747 254.883 296.868 253.245 286.648H253.373C265.982 284.125 268.855 270.686 266.888 262.715L267.117 262.623C269.41 261.678 271.421 260.157 272.954 258.208C276.486 253.299 269.084 247.768 265.46 252.577Z" fill="black"/>
<path d="M227.57 258.062L225.347 264.571C225.347 264.571 224.112 263.702 222.547 262.322C219.427 259.579 214.98 254.899 216.407 251.279C217.935 247.384 222.977 252.522 225.731 255.767C226.838 257.065 227.57 258.062 227.57 258.062Z" fill="#006095"/>
<path d="M232.264 254.35C231.586 255.238 230.862 256.089 230.096 256.901C229.906 255.765 229.775 254.621 229.702 253.473C229.519 250.145 229.867 245.72 233.207 246.708C236.546 247.695 234.305 251.681 232.264 254.35Z" fill="#006095"/>
<path d="M260.968 255.374C260.904 257.513 260.693 259.223 260.693 259.223C259.721 258.463 258.804 257.635 257.948 256.745C255.432 254.14 252.641 250.108 256.548 247.686C260.583 245.172 261.087 251.114 260.968 255.374Z" fill="#006095"/>
<path d="M274.116 258.181C272.583 260.129 270.572 261.65 268.279 262.596C267.641 262.871 266.987 263.106 266.321 263.3L263.695 259.643C263.976 258.428 264.34 257.234 264.783 256.069C265.226 254.83 265.842 253.66 266.613 252.595C270.246 247.768 277.648 253.299 274.116 258.181Z" fill="#006095"/>
<path opacity="0.1" d="M225.731 255.767C226.838 257.065 227.561 258.062 227.561 258.062L225.338 264.571C225.338 264.571 224.102 263.702 222.538 262.322C222.884 260.238 223.746 258.274 225.045 256.608C225.274 256.306 225.502 256.023 225.731 255.767Z" fill="black"/>
<path opacity="0.1" d="M232.264 254.35C231.586 255.238 230.862 256.089 230.096 256.901C229.906 255.765 229.775 254.621 229.702 253.473C230.626 253.493 231.522 253.8 232.264 254.35V254.35Z" fill="black"/>
<path d="M243.208 280.185L237.672 282.616C236.662 282.113 235.678 281.557 234.726 280.953C228.906 277.378 217.212 268.383 225.054 257.769C232.896 247.156 239.438 266.189 242.009 275.495C242.787 278.274 243.208 280.185 243.208 280.185Z" fill="#006095"/>
<path opacity="0.1" d="M257.921 256.754C258.723 255.924 259.814 255.433 260.968 255.383C260.904 257.522 260.693 259.232 260.693 259.232C259.711 258.473 258.785 257.645 257.921 256.754V256.754Z" fill="black"/>
<path opacity="0.1" d="M268.279 262.596C267.641 262.871 266.987 263.106 266.321 263.3L263.695 259.643C263.976 258.428 264.34 257.234 264.783 256.069C266.476 257.038 267.721 259.497 268.279 262.596Z" fill="black"/>
<path d="M254.535 286.62C254.23 286.681 253.925 286.736 253.62 286.785C235.073 289.61 247.508 279.6 247.508 279.6C247.508 279.6 248.341 278.832 249.475 277.579C251.708 275.111 255.084 270.787 255.469 266.792C256.045 260.786 256.722 255.155 263.823 256.809C270.923 258.464 272.103 283.11 254.535 286.62Z" fill="#006095"/>
<path d="M254.197 332.777H218.74V342.092H254.197V332.777Z" fill="#474157"/>
<path d="M259.431 302.509H213.104V335.017H259.431V302.509Z" fill="#474157"/>
<path opacity="0.1" d="M253.849 332.777H218.393V342.092H253.849V332.777Z" fill="black"/>
<path opacity="0.1" d="M259.284 302.509H212.958V335.017H259.284V302.509Z" fill="black"/>
<path d="M256.53 332.777H221.074V342.092H256.53V332.777Z" fill="#474157"/>
<path opacity="0.1" d="M242.009 275.495C242.787 278.237 243.208 280.185 243.208 280.185L237.672 282.616C236.662 282.113 235.678 281.557 234.726 280.953C236.894 278.21 239.337 276.135 242.009 275.495Z" fill="black"/>
<path opacity="0.1" d="M254.535 286.62C254.23 286.681 253.925 286.736 253.62 286.785C235.073 289.61 247.508 279.6 247.508 279.6C247.508 279.6 248.341 278.832 249.475 277.579C252.916 280.349 254.38 283.467 254.535 286.62Z" fill="black"/>
<path d="M224.368 304.346C224.368 304.346 234.762 267.185 249.329 278.64C263.896 290.094 243.4 307.747 243.4 307.747L224.368 304.346Z" fill="#006095"/>
<path opacity="0.1" d="M229.62 264.753C230.262 264.753 230.782 264.234 230.782 263.592C230.782 262.951 230.262 262.431 229.62 262.431C228.978 262.431 228.458 262.951 228.458 263.592C228.458 264.234 228.978 264.753 229.62 264.753Z" fill="black"/>
<path opacity="0.1" d="M229.519 270.193C230.161 270.193 230.681 269.673 230.681 269.032C230.681 268.391 230.161 267.871 229.519 267.871C228.877 267.871 228.357 268.391 228.357 269.032C228.357 269.673 228.877 270.193 229.519 270.193Z" fill="black"/>
<path opacity="0.1" d="M263.319 265.823C263.961 265.823 264.481 265.303 264.481 264.662C264.481 264.021 263.961 263.501 263.319 263.501C262.678 263.501 262.157 264.021 262.157 264.662C262.157 265.303 262.678 265.823 263.319 265.823Z" fill="black"/>
<path opacity="0.1" d="M236.125 293.669C236.767 293.669 237.288 293.149 237.288 292.508C237.288 291.867 236.767 291.347 236.125 291.347C235.484 291.347 234.963 291.867 234.963 292.508C234.963 293.149 235.484 293.669 236.125 293.669Z" fill="black"/>
<path opacity="0.1" d="M260.885 274.846C261.527 274.846 262.048 274.326 262.048 273.685C262.048 273.044 261.527 272.524 260.885 272.524C260.244 272.524 259.723 273.044 259.723 273.685C259.723 274.326 260.244 274.846 260.885 274.846Z" fill="black"/>
<path opacity="0.1" d="M248.844 286.876C249.486 286.876 250.006 286.357 250.006 285.715C250.006 285.074 249.486 284.554 248.844 284.554C248.202 284.554 247.682 285.074 247.682 285.715C247.682 286.357 248.202 286.876 248.844 286.876Z" fill="black"/>
<path opacity="0.1" d="M233.6 267.085C234.242 267.085 234.762 266.565 234.762 265.924C234.762 265.282 234.242 264.763 233.6 264.763C232.958 264.763 232.438 265.282 232.438 265.924C232.438 266.565 232.958 267.085 233.6 267.085Z" fill="black"/>
<path opacity="0.1" d="M260.108 269.315C260.749 269.315 261.27 268.795 261.27 268.154C261.27 267.513 260.749 266.993 260.108 266.993C259.466 266.993 258.946 267.513 258.946 268.154C258.946 268.795 259.466 269.315 260.108 269.315Z" fill="black"/>
<path opacity="0.1" d="M256.127 278.338C256.769 278.338 257.289 277.818 257.289 277.177C257.289 276.536 256.769 276.016 256.127 276.016C255.486 276.016 254.965 276.536 254.965 277.177C254.965 277.818 255.486 278.338 256.127 278.338Z" fill="black"/>
<path opacity="0.1" d="M243.894 292.8C244.536 292.8 245.056 292.28 245.056 291.639C245.056 290.998 244.536 290.478 243.894 290.478C243.252 290.478 242.732 290.998 242.732 291.639C242.732 292.28 243.252 292.8 243.894 292.8Z" fill="black"/>
<path opacity="0.1" d="M241.368 287.078C242.01 287.078 242.531 286.558 242.531 285.917C242.531 285.275 242.01 284.755 241.368 284.755C240.727 284.755 240.206 285.275 240.206 285.917C240.206 286.558 240.727 287.078 241.368 287.078Z" fill="black"/>
<path opacity="0.1" d="M235.348 274.169C235.99 274.169 236.51 273.65 236.51 273.008C236.51 272.367 235.99 271.847 235.348 271.847C234.706 271.847 234.186 272.367 234.186 273.008C234.186 273.65 234.706 274.169 235.348 274.169Z" fill="black"/>
<path opacity="0.1" d="M256.53 332.777H221.074V336.178H256.53V332.777Z" fill="black"/>
<path d="M261.764 302.509H215.437V335.017H261.764V302.509Z" fill="#474157"/>
<path opacity="0.1" d="M245.449 298.038C246.091 298.038 246.611 297.519 246.611 296.877C246.611 296.236 246.091 295.716 245.449 295.716C244.808 295.716 244.287 296.236 244.287 296.877C244.287 297.519 244.808 298.038 245.449 298.038Z" fill="black"/>
<path opacity="0.1" d="M238.45 299.492C239.091 299.492 239.612 298.972 239.612 298.331C239.612 297.69 239.091 297.17 238.45 297.17C237.808 297.17 237.288 297.69 237.288 298.331C237.288 298.972 237.808 299.492 238.45 299.492Z" fill="black"/>
<path d="M349.54 426.726C349.54 426.726 355.314 434.268 346.877 445.659C338.441 457.05 331.478 466.685 334.287 473.761C334.287 473.761 347.024 452.607 357.382 452.314C367.739 452.022 360.904 439.443 349.54 426.726Z" fill="#006095"/>
<path opacity="0.1" d="M349.54 426.726C350.04 427.455 350.438 428.248 350.72 429.085C360.831 440.969 366.22 452.04 356.494 452.314C347.445 452.57 336.584 468.769 333.985 472.828C334.067 473.139 334.168 473.444 334.287 473.742C334.287 473.742 347.024 452.588 357.382 452.296C367.739 452.003 360.904 439.443 349.54 426.726Z" fill="black"/>
<path d="M360.236 436.334C360.236 438.995 359.934 441.143 359.568 441.143C359.202 441.143 358.901 438.995 358.901 436.334C358.901 433.674 359.276 434.936 359.642 434.936C360.008 434.936 360.236 433.683 360.236 436.334Z" fill="#FFD037"/>
<path d="M363.915 439.507C361.581 440.777 359.55 441.545 359.34 441.225C359.129 440.905 360.914 439.607 363.247 438.336C365.58 437.066 364.656 437.989 364.83 438.336C365.004 438.684 366.248 438.236 363.915 439.507Z" fill="#FFD037"/>
<path d="M319.006 426.726C319.006 426.726 313.224 434.268 321.669 445.659C330.115 457.05 337.069 466.685 334.25 473.761C334.25 473.761 321.523 452.607 311.156 452.314C300.789 452.022 307.605 439.443 319.006 426.726Z" fill="#006095"/>
<path opacity="0.1" d="M319.006 426.726C318.502 427.452 318.104 428.246 317.826 429.085C307.706 440.969 302.326 452.04 312.043 452.314C321.102 452.57 331.963 468.769 334.561 472.828C334.47 473.148 334.369 473.459 334.25 473.742C334.25 473.742 321.523 452.588 311.156 452.296C300.789 452.003 307.606 439.443 319.006 426.726Z" fill="black"/>
<path d="M308.264 436.334C308.264 438.995 308.566 441.143 308.932 441.143C309.298 441.143 309.6 438.995 309.6 436.334C309.6 433.674 309.225 434.936 308.859 434.936C308.493 434.936 308.264 433.683 308.264 436.334Z" fill="#FFD037"/>
<path d="M304.586 439.507C306.919 440.777 308.95 441.545 309.161 441.225C309.371 440.905 307.596 439.607 305.263 438.336C302.93 437.066 303.845 437.989 303.671 438.336C303.497 438.684 302.253 438.236 304.586 439.507Z" fill="#FFD037"/>
<path opacity="0.1" d="M334.259 531.472C367.602 531.472 394.631 527.326 394.631 522.212C394.631 517.097 367.602 512.951 334.259 512.951C300.917 512.951 273.888 517.097 273.888 522.212C273.888 527.326 300.917 531.472 334.259 531.472Z" fill="#6C63FF"/>
<path d="M365.324 463.595L365.031 465.954L364.628 469.281L364.464 470.662L364.061 473.998L363.878 475.379L363.476 478.706L358.855 516.544C358.443 519.926 352.926 522.559 346.255 522.559H322.245C315.584 522.559 310.067 519.926 309.655 516.544L305.025 478.706L304.623 475.379L304.458 473.998L304.037 470.662L303.872 469.281L303.47 465.954L303.177 463.595C302.948 461.684 305.922 460.076 309.71 460.076H358.8C362.57 460.076 365.562 461.684 365.324 463.595Z" fill="#65617D"/>
<path d="M365.04 465.944L364.628 469.272H303.881L303.47 465.944H365.04Z" fill="#9D9CB5"/>
<path d="M364.464 470.662L364.061 473.989H304.458L304.046 470.662H364.464Z" fill="#9D9CB5"/>
<path d="M363.887 475.379L363.485 478.706H305.034L304.623 475.379H363.887Z" fill="#9D9CB5"/>
<path d="M517.406 335.081V336.964H461.674V335.437C465.184 334.14 468.211 331.798 470.348 328.729C472.484 325.659 473.628 322.008 473.624 318.269C473.624 314.766 472.617 311.336 470.722 308.388C468.828 305.44 466.125 303.098 462.936 301.64H517.031C513.805 303.109 511.075 305.483 509.174 308.473C507.272 311.463 506.281 314.94 506.321 318.483C506.361 322.025 507.43 325.479 509.398 328.426C511.366 331.372 514.148 333.684 517.406 335.081V335.081Z" fill="#C8CAD7"/>
<path opacity="0.1" d="M517.031 301.64C514.546 302.779 512.348 304.46 510.598 306.559C508.848 308.659 507.592 311.123 506.92 313.771H473.065C472.389 311.123 471.128 308.659 469.375 306.56C467.623 304.461 465.423 302.78 462.936 301.64H517.031Z" fill="black"/>
<path d="M397.852 292.041V302.618C397.852 308.451 402.134 313.186 407.405 313.186H571.382C576.653 313.186 580.935 308.451 580.935 302.618V292.041H397.852Z" fill="#C8CAD7"/>
<path opacity="0.1" d="M517.406 335.081V336.964H461.674V335.437C463.202 334.869 464.648 334.1 465.974 333.152H513.993C515.059 333.914 516.203 334.561 517.406 335.081V335.081Z" fill="black"/>
<path d="M533.044 333.737H446.054C444.513 333.737 443.264 334.985 443.264 336.525C443.264 338.065 444.513 339.313 446.054 339.313H533.044C534.585 339.313 535.834 338.065 535.834 336.525C535.834 334.985 534.585 333.737 533.044 333.737Z" fill="#C8CAD7"/>
<path d="M580.935 176.225C580.935 174.972 580.688 173.731 580.208 172.573C579.728 171.415 579.024 170.363 578.137 169.476C577.25 168.59 576.197 167.887 575.038 167.408C573.879 166.928 572.637 166.681 571.382 166.681H407.405C404.871 166.681 402.442 167.687 400.65 169.476C398.859 171.266 397.852 173.694 397.852 176.225V294.098H580.935V176.225Z" fill="#5F5D7E"/>
<path d="M575.939 180.476V281.766C575.939 283.012 575.443 284.208 574.561 285.089C573.679 285.97 572.483 286.465 571.236 286.465H407.551C406.304 286.465 405.108 285.97 404.226 285.089C403.344 284.208 402.848 283.012 402.848 281.766V180.476C402.862 179.65 403.095 178.842 403.525 178.136C403.939 177.422 404.532 176.83 405.247 176.417C405.961 176.005 406.772 175.787 407.597 175.786H571.236C572.482 175.786 573.677 176.28 574.558 177.159C575.44 178.038 575.937 179.231 575.939 180.476Z" fill="#006095"/>
<path d="M489.398 173.428C490.616 173.428 491.603 172.441 491.603 171.224C491.603 170.008 490.616 169.021 489.398 169.021C488.18 169.021 487.193 170.008 487.193 171.224C487.193 172.441 488.18 173.428 489.398 173.428Z" fill="white"/>
<path d="M489.398 308.487C492.4 308.487 494.833 306.056 494.833 303.057C494.833 300.058 492.4 297.627 489.398 297.627C486.396 297.627 483.963 300.058 483.963 303.057C483.963 306.056 486.396 308.487 489.398 308.487Z" fill="white"/>
<path d="M575.939 180.476H402.848C402.848 179.23 403.344 178.035 404.226 177.153C405.108 176.272 406.304 175.777 407.551 175.777H571.236C572.483 175.777 573.679 176.272 574.561 177.153C575.443 178.035 575.939 179.23 575.939 180.476Z" fill="white"/>
<path d="M407.56 179.297C408.207 179.297 408.732 178.773 408.732 178.126C408.732 177.48 408.207 176.956 407.56 176.956C406.914 176.956 406.389 177.48 406.389 178.126C406.389 178.773 406.914 179.297 407.56 179.297Z" fill="#EDEDF4"/>
<path d="M411.083 179.297C411.73 179.297 412.254 178.773 412.254 178.126C412.254 177.48 411.73 176.956 411.083 176.956C410.436 176.956 409.912 177.48 409.912 178.126C409.912 178.773 410.436 179.297 411.083 179.297Z" fill="#EDEDF4"/>
<path d="M414.606 179.297C415.253 179.297 415.777 178.773 415.777 178.126C415.777 177.48 415.253 176.956 414.606 176.956C413.959 176.956 413.435 177.48 413.435 178.126C413.435 178.773 413.959 179.297 414.606 179.297Z" fill="#EDEDF4"/>
<path d="M601.166 385.653C601.166 385.653 612.146 390.114 625.624 395.462C626.085 397.002 626.44 398.572 626.685 400.161C626.923 403.269 633.09 407.648 633.09 407.648C633.09 407.648 644.528 409.714 653.138 412.136C659.826 413.965 660.751 410.308 659.89 408.882L661.894 409.65C662.343 428.153 662.855 441.646 662.855 441.646C662.855 441.646 665.783 441.646 670.404 441.865C670.459 442.45 670.514 443.054 670.578 443.694C672.344 461.977 675.592 492.145 678.108 494.649C681.768 498.187 680.149 524.26 678.74 528.867C677.33 533.474 678.74 566.631 678.74 566.631C678.74 566.631 684.403 586.889 683.928 608.994C683.452 631.099 690.058 642.617 690.058 642.617L692.428 642.791C692.428 643.404 692.355 644.007 692.327 644.62C692.218 646.622 692.135 648.624 692.108 650.443C691.961 653.221 691.007 655.895 689.363 658.14C685.57 663.557 682.955 669.707 681.686 676.195C681.409 677.646 681.213 679.111 681.1 680.583C681.1 680.949 681.054 681.15 681.054 681.15C681.054 681.15 683.25 687.604 703.856 689.752C724.462 691.9 721.479 677.009 721.479 677.009C721.479 677.009 721.58 676.588 721.708 675.82C722.609 670.786 722.637 665.634 721.79 660.59C721.068 656.659 721.69 649.858 722.586 643.623C722.678 642.974 722.779 642.334 722.87 641.703C724.594 641.343 726.213 640.593 727.601 639.509C734.051 633.631 727.601 586.899 727.601 586.899C727.601 586.899 715.962 548.677 718.798 543.146C721.635 537.616 724.929 524.269 724.929 524.269V477.756C729.504 470.378 731.563 460.286 732.414 451.098C732.468 450.486 732.523 449.882 732.569 449.27C736.385 449.343 740.045 449.206 743.366 448.977L744.281 450.806C749.68 461.255 755.17 471.603 756.515 473.13C759.342 476.357 756.981 491.093 756.515 498.462C756.048 505.83 761.703 520.566 761.703 520.566C754.63 524.708 753.212 573.524 753.212 573.524C753.212 573.524 758.4 585.5 747.548 598.856C736.696 612.212 740.941 637.544 742.36 636.62C742.735 636.374 745.031 636.748 748.298 637.288C747.705 639.476 746.643 641.51 745.187 643.248C741.683 647.6 740.484 654.419 740.136 659.868C739.932 662.707 739.932 665.558 740.136 668.397L747.996 673.882C747.996 673.882 752.873 673.882 752.873 678.188C752.873 682.494 764.823 686.781 764.823 686.781C764.823 686.781 782.592 691.69 796.281 686.781C800.718 685.19 802.073 682.457 801.551 679.139C800.471 672.2 791.184 662.684 784.486 655.772C779.966 651.083 777.907 644.866 776.992 639.482C776.892 638.906 776.809 638.339 776.736 637.781C777.288 637.471 777.78 637.065 778.191 636.584C783.855 629.673 789.985 610.795 789.985 610.795C789.985 610.795 787.186 591.506 793.316 573.972C797.891 561 803.445 530.595 806.025 515.703C806.969 510.3 807.141 504.791 806.538 499.339C805.348 488.47 803.518 468.33 804.168 452.387C804.388 447.186 804.232 438.912 803.875 429.213V429.076C807.233 422.741 814.517 412.401 826.668 411.551C844.282 410.317 835.159 400.654 835.159 400.654C835.159 400.654 824.829 328.133 818.021 315.261C817.917 315.037 817.798 314.82 817.664 314.612C816.658 313.013 815.56 309.813 814.398 305.544C807.691 280.815 799.108 219.895 799.108 219.895L798.056 205.076C808.56 210.223 828.05 219.612 835.909 222.354C846.889 226.194 862.17 223.735 865.949 211.146C869.728 198.558 853.999 173.08 853.999 173.08C851.684 164.048 835.699 145.244 827.382 135.91C826.576 134.694 825.78 133.487 825.003 132.336C822.861 129.145 820.931 126.329 819.705 124.675L819.586 124.903C819.284 124.483 819 124.09 818.753 123.761L818.552 124.163C815.578 118.678 812.238 113.037 809.649 110.011C803.628 102.991 777.368 95.4396 774.769 97.5148C772.875 99.0231 780.735 105.605 786.234 109.646L780.982 106.099L769.242 95.9515L764.073 92.4594C763.857 92.3138 763.631 92.1855 763.396 92.0754C764.741 86.7951 764.904 81.2833 763.873 75.9328C762.841 70.5824 760.642 65.5251 757.43 61.1216C757.064 60.6188 756.67 60.116 756.277 59.6315C761.684 55.1337 763.396 47.7015 763.396 41.1652V40.9184C762.995 38.4686 761.907 36.1828 760.257 34.3272C760.339 34.4917 760.422 34.6746 760.495 34.8483C759.549 33.6386 758.351 32.6484 756.985 31.9461C755.618 31.2438 754.115 30.846 752.58 30.7802C748.005 30.707 744.171 33.7055 740.154 35.7624C736.022 37.8304 731.492 38.9826 726.872 39.1404C722.253 39.2981 717.655 38.4577 713.391 36.6766C710.911 35.6162 708.413 34.2083 705.723 34.4277C703.033 34.6471 700.901 36.3749 699.071 38.1758C694.671 42.4136 691.21 47.5276 688.914 53.1865C688.237 54.8412 687.633 56.6056 686.325 57.8488C685.329 58.6612 684.249 59.366 683.104 59.9514C681.131 61.2071 679.434 62.8493 678.115 64.7788C676.795 66.7083 675.881 68.885 675.427 71.1775C674.573 75.7413 675.053 80.4543 676.809 84.7529C677.87 87.7285 679.605 90.4191 681.878 92.6148C683.589 94.1963 685.639 95.3573 687.45 96.8474C688.273 97.5169 689.041 98.2505 689.747 99.0414C681.518 100.861 673.994 105.028 668.089 111.035C663.652 115.319 659.943 120.296 657.109 125.772C649.45 140.152 644.802 149.101 642.039 154.779C640.657 155.199 639.806 155.4 639.806 155.4C639.806 155.4 629.43 164.606 629.586 191.007L621.561 243.81V270.824C621.561 270.824 611.231 300.141 612.923 324.403C612.923 324.732 612.923 325.052 612.987 325.372L612.146 329.495C610.85 331.259 610.203 333.416 610.316 335.602C610.263 336.349 610.319 337.101 610.48 337.832L606.271 358.602L607.067 359.443L604.899 365.541C596.728 378.586 601.166 385.653 601.166 385.653ZM661.849 237.557C662.37 237.913 662.663 238.096 662.663 238.096C662.663 238.096 667.238 279.024 664.493 303.359L654.858 302.701L650.283 301.293L651.921 288.284C651.921 288.284 657.786 254.012 661.812 237.557H661.849ZM699.711 118.76L700.626 117.352C700.434 117.855 700.242 118.349 700.041 118.806L699.711 118.76ZM656.221 303.158L661.208 303.67L664.365 304.328C664.31 304.767 664.255 305.196 664.2 305.617L656.221 303.158ZM763.396 126.211C763.393 125.755 763.362 125.3 763.304 124.849L767.22 127.171L767.458 127.317C766.104 126.924 764.713 126.576 763.396 126.256V126.211ZM793.792 144.311C793.254 143.469 792.674 142.654 792.053 141.87C794.798 142.529 796.5 142.913 796.5 142.913C798.691 142.532 800.945 142.76 803.015 143.571C803.685 144.933 804.44 146.252 805.275 147.52L812.504 161.507C812.504 161.507 810.93 161.662 807.782 160.126C804.635 158.591 793.792 144.311 793.792 144.311ZM656.459 407.593L658.719 408.507C658.216 408.662 657.411 408.297 656.459 407.593Z" fill="url(#paint0_linear)"/>
<path d="M734.756 107.095C737.666 108.805 737.757 116.109 737.309 121.969C736.988 126.256 736.394 129.767 736.394 129.767L755.325 175.75C755.325 175.75 762.343 142.986 762.453 128.359C762.461 127.205 762.285 126.057 761.931 124.958C758.628 114.418 740.072 108.567 734.756 107.095Z" fill="#67647E"/>
<path d="M733.393 106.73C733.393 106.73 733.905 106.848 734.792 107.095C734.367 106.85 733.884 106.724 733.393 106.73V106.73Z" fill="#67647E"/>
<path d="M739.953 666.505L747.575 671.99C747.575 671.99 752.306 671.99 752.306 676.259C752.306 680.528 763.89 684.788 763.89 684.788C763.89 684.788 781.128 689.661 794.396 684.788C798.696 683.207 800.014 680.501 799.511 677.2C798.458 670.317 789.446 660.91 782.958 654.008C778.575 649.355 776.553 643.184 775.693 637.845C775.059 634.025 774.887 630.142 775.181 626.281L747.273 624.297C748.871 628.505 748.871 633.153 747.273 637.361C746.663 638.866 745.841 640.276 744.83 641.548C741.426 645.863 740.255 652.637 739.926 658.003C739.735 660.834 739.744 663.675 739.953 666.505V666.505Z" fill="#67647E"/>
<path d="M682.601 679.148C682.601 679.148 684.733 685.547 704.716 687.686C724.7 689.825 721.8 675.034 721.8 675.034C721.8 675.034 721.9 674.613 722.028 673.855C722.897 668.854 722.922 663.743 722.101 658.734C721.406 654.84 722.01 648.084 722.879 641.895C723.904 634.527 725.304 627.954 725.304 627.954L694.34 630.24C694.34 630.24 693.8 636.538 693.489 642.901C693.389 644.885 693.306 646.868 693.279 648.678C693.135 651.425 692.208 654.074 690.607 656.312C686.941 661.716 684.425 667.814 683.214 674.229C682.947 675.669 682.757 677.121 682.647 678.581C682.601 678.947 682.601 679.148 682.601 679.148Z" fill="#67647E"/>
<path d="M739.953 666.505L747.575 671.99C747.575 671.99 752.306 671.99 752.306 676.259C752.306 680.528 763.89 684.788 763.89 684.788C763.89 684.788 781.128 689.661 794.396 684.788C798.696 683.207 800.014 680.501 799.511 677.2C799.099 677.2 798.705 677.255 798.376 677.264C792.941 677.438 787.652 678.901 782.245 679.385C779.163 679.612 776.072 679.661 772.985 679.532C771.453 679.521 769.924 679.402 768.41 679.175C764.75 678.526 761.355 676.634 758.089 674.778C757.29 674.403 756.586 673.853 756.03 673.169C755.59 672.409 755.281 671.581 755.115 670.719C753.962 666.587 750.741 663.278 747.044 661.102C744.795 659.823 742.41 658.796 739.935 658.039C739.742 660.858 739.748 663.687 739.953 666.505V666.505Z" fill="#67647E"/>
<path d="M682.601 679.148C682.601 679.148 684.733 685.547 704.716 687.686C724.7 689.825 721.8 675.034 721.8 675.034C721.8 675.034 721.9 674.613 722.028 673.855C721.113 674.33 720.336 674.769 719.979 674.97C718.149 676.04 716.511 677.511 714.608 678.508C710.033 680.912 704.543 680.199 699.382 679.422C696.957 679.056 694.532 678.691 692.117 678.243C690.275 677.99 688.483 677.46 686.801 676.67C685.551 675.943 684.352 675.13 683.214 674.239C682.947 675.678 682.757 677.13 682.647 678.59C682.601 678.947 682.601 679.148 682.601 679.148Z" fill="#67647E"/>
<path opacity="0.1" d="M739.953 666.505L747.575 671.99C747.575 671.99 752.306 671.99 752.306 676.259C752.306 680.528 763.89 684.788 763.89 684.788C763.89 684.788 781.128 689.661 794.396 684.788C798.696 683.207 800.014 680.501 799.511 677.2C799.099 677.2 798.705 677.255 798.376 677.264C792.941 677.438 787.652 678.901 782.245 679.385C779.163 679.612 776.072 679.661 772.985 679.532C771.453 679.521 769.924 679.402 768.41 679.175C764.75 678.526 761.355 676.634 758.089 674.778C757.29 674.403 756.586 673.853 756.03 673.169C755.59 672.409 755.281 671.581 755.115 670.719C753.962 666.587 750.741 663.278 747.044 661.102C744.795 659.823 742.41 658.796 739.935 658.039C739.742 660.858 739.748 663.687 739.953 666.505V666.505Z" fill="black"/>
<path opacity="0.1" d="M682.601 679.148C682.601 679.148 684.733 685.547 704.716 687.686C724.7 689.825 721.8 675.034 721.8 675.034C721.8 675.034 721.9 674.613 722.028 673.855C721.113 674.33 720.336 674.769 719.979 674.97C718.149 676.04 716.511 677.511 714.608 678.508C710.033 680.912 704.543 680.199 699.382 679.422C696.957 679.056 694.532 678.691 692.117 678.243C690.275 677.99 688.483 677.46 686.801 676.67C685.551 675.943 684.352 675.13 683.214 674.239C682.947 675.678 682.757 677.13 682.647 678.59C682.601 678.947 682.601 679.148 682.601 679.148Z" fill="black"/>
<path opacity="0.1" d="M747.273 624.297C748.871 628.506 748.871 633.153 747.273 637.361C755.279 638.723 770.203 641.475 775.693 637.845C775.059 634.025 774.887 630.142 775.181 626.281L747.273 624.297Z" fill="black"/>
<path opacity="0.1" d="M693.499 642.901C699.153 643.303 714.37 644.098 722.889 641.895C723.913 634.527 725.313 627.954 725.313 627.954L694.35 630.24C694.35 630.24 693.81 636.538 693.499 642.901Z" fill="black"/>
<path d="M671.172 429.734C671.172 429.734 671.648 435.448 672.408 443.447C674.119 461.602 677.276 491.578 679.728 494.019C683.241 497.538 681.713 523.409 680.341 527.98C678.968 532.551 680.341 565.461 680.341 565.461C683.795 579.209 685.486 593.339 685.373 607.513C684.916 629.453 691.321 640.88 691.321 640.88C691.321 640.88 721.516 643.623 727.765 637.791C734.015 631.958 727.765 585.573 727.765 585.573C727.765 585.573 716.456 547.662 719.201 542.177C721.946 536.692 725.148 523.437 725.148 523.437V477.271C729.586 469.958 731.553 459.902 732.404 450.815C733.082 443.042 733.103 435.225 732.468 427.449C732.468 427.449 738.151 439.059 743.943 450.541C749.176 460.917 754.502 471.183 755.838 472.7C758.583 475.9 756.295 490.527 755.838 497.84C755.38 505.153 760.87 519.78 760.87 519.78C754.008 523.894 752.635 572.345 752.635 572.345C752.635 572.345 757.668 584.229 747.145 597.485C736.623 610.74 740.74 635.88 742.113 634.966C743.485 634.052 771.393 641.822 776.883 634.966C782.373 628.109 788.32 609.369 788.32 609.369C788.32 609.369 785.575 590.171 791.523 572.802C795.933 559.931 801.341 529.754 803.848 514.972C804.747 509.606 804.898 504.142 804.296 498.736C803.143 487.939 801.368 467.956 801.999 452.113C802.21 446.948 802.063 438.739 801.716 429.112C800.535 396.111 796.967 346.526 796.967 346.526L772.17 329.742L755.801 318.662L751.793 319.275L677.111 330.802L674.21 367.607L671.172 429.734Z" fill="#444053"/>
<path opacity="0.1" d="M772.189 329.76L773.497 336.946C773.497 336.946 784.477 389.51 786.765 416.479C789.052 443.447 798.66 435.676 798.66 435.676C799.498 433.412 800.526 431.222 801.734 429.131C800.554 396.129 796.985 346.544 796.985 346.544L772.189 329.76Z" fill="black"/>
<path d="M693.746 130.343C693.746 130.343 744.986 171.325 735.525 163.098C730.346 158.582 733.868 139.329 738.114 122.874C741.609 109.298 745.59 97.6153 745.59 97.6153C745.59 97.6153 700.864 55.8102 704.113 89.9911C705.256 102.04 704.305 110.606 702.594 116.658C699.455 127.746 693.746 130.343 693.746 130.343Z" fill="#EFB7B9"/>
<path opacity="0.1" d="M698.01 119.446L730.492 144.814L739.944 134.301C739.944 134.301 748.033 130.8 748.636 134.758C749.24 138.717 751.537 163.097 746.806 165.383C742.076 167.668 735.982 169.195 730.648 168.436C725.313 167.677 719.356 161.726 715.395 159.441C711.433 157.155 696.793 145.271 696.793 145.271L689.473 135.069L698.01 119.446Z" fill="black"/>
<path d="M698.01 120.36L730.492 145.728L739.944 135.215C739.944 135.215 748.033 131.714 748.636 135.672C749.24 139.631 751.537 164.012 746.806 166.297C742.076 168.583 735.982 170.109 730.648 169.35C725.313 168.592 719.356 162.64 715.395 160.355C711.433 158.07 696.793 146.185 696.793 146.185L689.473 135.983L698.01 120.36Z" fill="#A36468"/>
<path opacity="0.1" d="M671.172 429.734C671.172 429.734 671.648 435.448 672.408 443.447C682.473 443.831 701.999 445.019 715.706 448.603C721.175 449.955 726.78 450.688 732.414 450.787C733.091 443.014 733.112 435.198 732.478 427.421C732.478 427.421 738.16 439.031 743.952 450.513C748.906 450.18 753.835 449.541 758.711 448.603L752.608 369.371C752.608 369.371 752.809 342.778 751.803 319.247L677.111 330.802L674.21 367.607L671.172 429.734Z" fill="black"/>
<path opacity="0.1" d="M727.289 142.684C727.289 142.684 705.101 118.449 699.839 122.298C694.578 126.147 691.174 135.526 691.174 135.526L709.246 155.327L727.289 142.684Z" fill="black"/>
<path d="M726.375 141.77C726.375 141.77 704.186 117.535 698.925 121.384C693.663 125.232 690.26 134.612 690.26 134.612L708.331 154.413L726.375 141.77Z" fill="#A36468"/>
<path opacity="0.1" d="M744.821 157.302L732.011 141.258C732.011 141.258 734.024 126.092 738.709 128.03C743.394 129.968 744.821 137.729 744.821 137.729V157.302Z" fill="black"/>
<path d="M745.736 156.241L732.99 140.197C732.99 140.197 735.003 125.031 739.688 126.969C744.373 128.907 745.736 136.669 745.736 136.669V156.241Z" fill="#A36468"/>
<path opacity="0.1" d="M687.03 127.445C687.03 127.445 713.299 155.784 728.982 157.686C730.401 157.859 731.819 158.097 733.219 158.38C737.318 159.185 746.248 158.38 744.83 134.95L746.807 130.8L759.013 138.269L763.13 171.782L770.45 257.714L781.275 353.401C781.275 353.401 748.033 350.201 738.727 358.584C729.422 366.967 726.832 312.876 726.832 312.876L701.368 203.175L674.219 132.628L687.03 127.445Z" fill="black"/>
<path opacity="0.1" d="M674.219 136.285L701.368 206.831L726.832 316.532C726.832 316.532 729.431 370.615 738.727 362.241C741.765 359.498 747.365 357.999 753.523 357.222C761.095 356.405 768.723 356.234 776.324 356.71C779.362 356.875 781.275 357.057 781.275 357.057L770.441 261.371L763.121 175.439L759.003 141.925L746.807 134.456L744.821 138.607C744.821 139.219 744.885 139.823 744.912 140.435C745.773 162.083 737.199 162.851 733.219 162.064C731.81 161.781 730.401 161.543 728.973 161.37C717.865 160.008 701.45 145.408 692.821 137.016C689.262 133.542 687.02 131.129 687.02 131.129L674.219 136.285Z" fill="black"/>
<path d="M674.219 133.542L701.368 204.089L726.832 313.79C726.832 313.79 729.431 367.872 738.727 359.498C741.765 356.756 747.365 355.256 753.523 354.479C761.095 353.662 768.723 353.491 776.324 353.968C779.362 354.132 781.275 354.315 781.275 354.315L770.441 258.628L763.121 172.696L759.003 139.183L746.807 131.714L744.821 135.864C744.821 136.477 744.885 137.08 744.912 137.693C745.773 159.34 737.199 160.108 733.219 159.322C731.81 159.039 730.401 158.801 728.973 158.627C717.865 157.265 701.45 142.666 692.821 134.274C689.262 130.8 687.02 128.386 687.02 128.386L674.219 133.542Z" fill="#006095"/>
<path opacity="0.1" d="M744.821 135.864C744.821 136.477 744.885 137.08 744.913 137.693L745.123 137.839C748.344 139.96 753.514 175.777 753.514 175.777L760.221 267.039L772.573 335.145C772.573 335.145 774.193 342.906 776.315 353.995C779.353 354.159 781.266 354.342 781.266 354.342L770.441 258.628L763.121 172.696L759.004 139.183L746.807 131.714L744.821 135.864Z" fill="black"/>
<path d="M736.421 129.767C736.421 129.767 743.741 135.691 746.962 137.811C750.183 139.932 755.353 175.75 755.353 175.75L762.06 267.011L774.412 335.117C774.412 335.117 785.392 387.682 787.68 414.65C789.967 441.618 799.575 433.848 799.575 433.848C799.575 433.848 806.748 412.822 823.822 411.606C840.896 410.39 832.057 400.782 832.057 400.782C832.057 400.782 822.056 328.773 815.477 315.947C815.375 315.727 815.259 315.513 815.13 315.307C814.16 313.716 813.089 310.544 811.964 306.303C805.458 281.766 797.141 221.285 797.141 221.285L791.953 146.322C778.676 124.702 737.501 125.452 737.501 125.452L736.421 129.767Z" fill="#67647E"/>
<path opacity="0.1" d="M674.219 133.542L701.368 204.089L726.832 313.79C726.832 313.79 729.431 367.872 738.727 359.498C741.765 356.756 747.365 355.257 753.523 354.479C753.413 335.885 752.846 302.518 750.165 288.495C747.845 275.68 746.876 262.658 747.273 249.642L714.022 177.267C714.022 177.267 689.015 146.469 688.86 142.062C688.805 140.435 690.58 137.418 692.831 134.246C689.271 130.772 687.03 128.359 687.03 128.359L674.219 133.542Z" fill="black"/>
<path d="M757.787 446.802L751.693 367.57C751.693 367.57 752.15 308.451 748.335 288.495C746.009 275.681 745.037 262.659 745.434 249.642L712.192 177.267C712.192 177.267 687.185 146.469 687.029 142.062C686.874 137.656 700.123 123.002 700.123 123.002C700.123 123.002 671.172 126.384 667.357 139.329C663.541 152.274 642.652 157.311 642.652 157.311C642.652 157.311 632.587 166.453 632.742 192.662C632.898 218.871 664.767 239.431 664.767 239.431C664.767 239.431 670.102 288.796 665.527 311.047C660.952 333.298 664.914 441.463 664.914 441.463C664.914 441.463 695.566 441.774 714.781 446.802C733.996 451.83 757.787 446.802 757.787 446.802Z" fill="#67647E"/>
<path d="M712.65 321.103L689.161 409.924C689.161 409.924 685.959 417.85 669.489 411.752C653.019 405.655 605.137 385.854 605.137 385.854C605.137 385.854 600.864 378.842 608.797 365.897L632.742 295.808L712.65 321.103Z" fill="#B07473"/>
<path d="M682.271 360.376L644.299 318.662L620.051 308.835L610.096 358.995L656.194 409.046L682.271 360.376Z" fill="#E1E7EF"/>
<path d="M641.691 374.308C641.691 374.308 652.982 380.936 655.956 381.164C658.93 381.393 669.434 401.203 664.996 401.047C660.558 400.892 650.237 395.562 651.271 398.305C652.305 401.047 659.03 409.275 660.988 408.498C662.946 407.721 663.852 414.531 655.498 412.155C647.144 409.778 636.055 407.693 636.055 407.693C636.055 407.693 630.107 403.351 629.878 400.27C629.65 397.19 624.507 380.954 624.507 380.954L641.691 374.308Z" fill="#EFB7B9"/>
<path d="M822.962 140.28C822.962 140.28 813.19 119.208 807.352 112.233C801.515 105.258 776.05 97.7707 773.497 99.8276C770.944 101.885 786.307 113.44 789.052 114.921C791.797 116.402 771.31 130.16 770.899 130.462C770.487 130.763 754.886 129.072 762.892 134.328C770.899 139.585 794.57 144.942 794.57 144.942C796.163 144.665 797.797 144.717 799.37 145.092C800.943 145.468 802.423 146.16 803.72 147.127C808.304 150.454 822.962 140.28 822.962 140.28Z" fill="#EFB7B9"/>
<path opacity="0.1" d="M619.676 375.368C620.97 379.606 622.706 383.697 624.855 387.573C627.143 385.506 648.984 378.312 648.984 378.312L646.559 374.573L642.606 368.485C642.606 368.485 623.135 364.261 619.823 368.485C618.706 369.902 618.908 372.516 619.676 375.368Z" fill="black"/>
<path d="M618.761 374.454C620.055 378.692 621.791 382.783 623.94 386.658C626.228 384.592 648.069 377.398 648.069 377.398L645.644 373.659L641.691 367.57C641.691 367.57 622.22 363.347 618.908 367.57C617.791 368.987 617.992 371.602 618.761 374.454Z" fill="#A36468"/>
<path opacity="0.1" d="M800.636 145.043C801.337 146.611 802.164 148.122 803.107 149.559C806.629 155.108 811.964 161.653 811.964 161.653C811.964 161.653 832.771 152.091 832.771 151.67C832.771 151.25 826.458 141.313 821.324 133.478C819.247 130.315 817.372 127.518 816.182 125.882C816.182 125.882 808.414 142.117 800.746 142.227C798.742 142.254 799.813 143.059 800.636 145.043Z" fill="black"/>
<path d="M801.551 145.957C802.252 147.526 803.079 149.036 804.022 150.473C807.544 156.022 812.879 162.567 812.879 162.567C812.879 162.567 833.686 153.005 833.686 152.585C833.686 152.164 827.372 142.227 822.239 134.392C820.162 131.229 818.286 128.432 817.097 126.796C817.097 126.796 809.329 143.031 801.661 143.141C799.657 143.169 800.728 143.973 801.551 145.957Z" fill="#A36468"/>
<path d="M684.211 313.634L686.883 305.635L649.386 303.002L663.395 304.492L681.238 308.314L679.865 313.634H684.211Z" fill="#B07473"/>
<path opacity="0.1" d="M618.761 374.454C622.897 372.507 633.932 368.457 645.644 373.659L641.691 367.57C641.691 367.57 622.22 363.347 618.908 367.57C617.791 368.987 617.992 371.602 618.761 374.454Z" fill="black"/>
<path d="M616.574 325.061C616.666 326.387 616.748 327.712 616.83 329.029C617.059 333.06 617.215 337.055 617.315 340.913C617.773 358.776 617.032 373.513 617.032 373.513C617.032 373.513 631.214 364.983 646.312 372.141L647.831 343.235V342.732L649.377 330.089L654.391 289.253C654.391 289.253 663.843 232.575 666.744 230.445C669.644 228.315 645.241 182.451 645.241 182.451L632.733 192.662L624.956 245.071V271.884C624.956 271.884 614.891 300.991 616.574 325.061Z" fill="#67647E"/>
<path opacity="0.1" d="M801.103 144.668L804.031 150.473C807.554 156.022 812.888 162.567 812.888 162.567C812.888 162.567 833.695 153.005 833.695 152.584C833.695 152.164 827.382 142.227 822.248 134.392C820.666 132.564 819.705 131.559 819.705 131.559C825.808 146.642 801.103 144.668 801.103 144.668Z" fill="black"/>
<path d="M783.407 142.062L791.953 146.341C791.953 146.341 802.475 160.51 805.522 162.037C808.569 163.564 810.097 163.408 810.097 163.408L801.103 145.582C801.103 145.582 825.808 147.557 819.705 132.473C819.705 132.473 847.31 162.64 850.357 174.835C850.357 174.835 865.61 200.121 861.95 212.618C858.29 225.115 843.495 227.547 832.817 223.744C822.139 219.941 789.354 203.175 789.354 203.175L783.407 142.062Z" fill="#67647E"/>
<path opacity="0.1" d="M814.059 171.782C814.059 171.782 837.09 197.534 835.26 201.036C833.43 204.537 815.276 176.965 814.059 171.782Z" fill="black"/>
<path opacity="0.2" d="M710.133 102.46C710.133 102.46 677.724 92.7062 659.424 127.902C641.124 163.097 640.511 165.538 641.426 167.211C642.341 168.884 677.87 159.596 679.856 163.71C681.841 167.824 659.726 184.736 659.726 184.736L745.425 249.642L709.42 173.181C706.998 167.825 703.771 162.87 699.849 158.49C693.929 151.871 685.831 141.733 688.695 138.607C691.22 135.864 695.264 128.706 700.718 120.47C704.716 114.427 711.067 107.616 710.133 102.46Z" fill="black"/>
<path d="M711.048 101.546C711.048 101.546 678.639 91.7921 660.339 126.988C642.039 162.183 641.426 164.624 642.341 166.297C643.256 167.97 678.785 158.682 680.771 162.796C682.756 166.91 660.641 183.822 660.641 183.822L745.425 249.642L710.335 172.267C707.913 166.911 704.686 161.956 700.764 157.576C694.844 150.957 686.746 140.819 689.61 137.693C692.135 134.95 696.18 127.792 701.633 119.555C705.631 113.513 711.982 106.702 711.048 101.546Z" fill="#67647E"/>
<path opacity="0.1" d="M711.048 101.546C711.048 101.546 678.639 91.7921 660.339 126.988C642.039 162.183 641.426 164.624 642.341 166.297C643.256 167.97 678.785 158.682 680.771 162.796C682.756 166.91 660.641 183.822 660.641 183.822L745.425 249.642L708.651 168.546C707.228 165.393 705.299 162.494 702.941 159.962C697.149 153.727 686.371 141.23 689.61 137.693C692.135 134.95 696.18 127.792 701.633 119.555C705.631 113.513 711.982 106.702 711.048 101.546Z" fill="black"/>
<path d="M704.414 262.889C708.119 262.889 711.121 259.888 711.121 256.188C711.121 252.487 708.119 249.487 704.414 249.487C700.71 249.487 697.708 252.487 697.708 256.188C697.708 259.888 700.71 262.889 704.414 262.889Z" fill="#444053"/>
<path d="M704.414 304.483C708.119 304.483 711.121 301.483 711.121 297.782C711.121 294.082 708.119 291.082 704.414 291.082C700.71 291.082 697.708 294.082 697.708 297.782C697.708 301.483 700.71 304.483 704.414 304.483Z" fill="#444053"/>
<path d="M617.315 340.913C621.177 341.827 639.486 341.416 647.812 343.235V342.732L649.359 330.089C639.971 328.919 619.566 326.698 616.803 329.029C613.225 332.073 612.713 339.862 617.315 340.913Z" fill="#67647E"/>
<path opacity="0.1" d="M617.315 341.827C621.177 342.741 639.486 342.33 647.812 344.149V343.647L649.359 331.004C639.971 329.833 619.566 327.612 616.803 329.943C613.225 332.987 612.713 340.776 617.315 341.827Z" fill="black"/>
<path opacity="0.1" d="M617.315 340.913C621.177 341.827 639.486 341.416 647.812 343.235V342.732L649.359 330.089C639.971 328.919 619.566 326.698 616.803 329.029C613.225 332.073 612.713 339.862 617.315 340.913Z" fill="black"/>
<path d="M621.305 338.847C623.538 338.847 625.349 337.038 625.349 334.806C625.349 332.575 623.538 330.766 621.305 330.766C619.071 330.766 617.26 332.575 617.26 334.806C617.26 337.038 619.071 338.847 621.305 338.847Z" fill="#444053"/>
<path opacity="0.1" d="M697.708 350.96L680.625 409.165C680.625 409.165 676.05 411.295 676.05 407.492C676.05 403.689 697.708 350.96 697.708 350.96Z" fill="white"/>
<path opacity="0.1" d="M704.259 113.796C705.338 114.661 706.465 115.464 707.635 116.2C713.446 119.857 718.615 124.83 726.027 124.83C730.138 124.836 734.221 124.166 738.114 122.846C741.609 109.271 745.59 97.5879 745.59 97.5879C745.59 97.5879 700.864 55.7828 704.113 89.9637C705.256 102.012 705.97 107.744 704.259 113.796Z" fill="black"/>
<path d="M688.457 85.466C688.457 92.8899 690.66 100.147 694.789 106.32C698.917 112.493 704.784 117.304 711.65 120.145C718.515 122.986 726.069 123.729 733.356 122.281C740.644 120.832 747.339 117.257 752.593 112.008C757.847 106.758 761.425 100.07 762.875 92.7889C764.325 85.5076 763.581 77.9604 760.737 71.1016C757.893 64.2428 753.078 58.3805 746.9 54.256C740.721 50.1315 733.458 47.9301 726.027 47.9301C721.087 47.9071 716.191 48.8623 711.622 50.7405C707.054 52.6187 702.903 55.3827 699.41 58.8728C695.916 62.3629 693.15 66.51 691.27 71.0744C689.39 75.6389 688.434 80.5303 688.457 85.466V85.466Z" fill="#EFB7B9"/>
<path d="M747.319 116.886C747.664 117.745 748.281 118.467 749.076 118.943L755.042 122.6L766.195 129.374L783.846 140.088C784.261 140.338 784.682 140.566 785.109 140.773C787.178 141.824 789.46 142.386 791.781 142.418C794.101 142.45 796.398 141.95 798.495 140.956C800.079 140.244 801.472 139.167 802.558 137.813C803.644 136.459 804.394 134.867 804.745 133.167C805.214 130.802 805.016 128.352 804.173 126.092C803.33 123.832 801.874 121.85 799.968 120.369C799.873 120.287 799.76 120.228 799.639 120.195C795.882 119.142 792.348 117.417 789.208 115.103L778.1 107.424L768.181 98.365L763.167 94.9002C762.432 94.3913 761.566 94.1036 760.673 94.0712C759.779 94.0388 758.895 94.263 758.125 94.7174C752.983 97.6885 742.744 105.331 747.319 116.886Z" fill="#E1E7EF"/>
<path d="M755.042 122.545L766.195 129.319C768.519 119.958 774.43 113.348 779.564 108.357L768.181 98.3009C759.525 102.588 756.085 116.886 755.042 122.545Z" fill="#A36468"/>
<path opacity="0.1" d="M785.081 140.719C787.15 141.769 789.433 142.331 791.753 142.363C794.074 142.395 796.371 141.895 798.468 140.901C800.052 140.19 801.444 139.112 802.53 137.758C803.617 136.404 804.366 134.812 804.717 133.113C805.187 130.747 804.989 128.297 804.145 126.037C803.302 123.777 801.846 121.795 799.941 120.314C797.171 121.486 794.606 123.094 792.346 125.077C789.193 127.805 786.909 131.396 785.776 135.407C785.328 137.143 785.095 138.926 785.081 140.719V140.719Z" fill="black"/>
<path opacity="0.1" d="M688.457 85.466C688.449 90.9327 689.642 96.3345 691.952 101.29C694.219 103.545 695.945 106.283 697.003 109.298C699.547 112.388 700.544 114.134 703.939 116.274C705.302 114.838 708.376 113.97 708.935 112.114C710.353 107.333 709.548 102.223 709.474 97.2405C709.474 95.0282 709.786 92.4137 711.734 91.3533C713.354 90.4391 715.395 91.0973 716.987 91.9932C718.579 92.8891 720.162 94.0501 721.992 94.2603C724.737 94.5711 727.244 92.6422 728.781 90.3751C730.318 88.1079 731.206 85.4568 732.661 83.1348C734.582 80.0724 737.419 77.7229 740.209 75.4375C743.403 72.8047 746.505 69.8885 749.908 67.5299C751.94 66.1129 754.374 65.4547 756.377 64.0286L756.698 63.7909C752.092 57.287 745.535 52.4157 737.975 49.882C730.415 47.3484 722.244 47.2838 714.644 49.6975C707.045 52.1113 700.411 56.8782 695.703 63.3086C690.995 69.7389 688.458 77.499 688.457 85.466V85.466Z" fill="black"/>
<path d="M762.481 43.9717C761.685 38.7061 757.32 33.7604 751.995 33.669C747.594 33.5958 743.842 36.576 739.944 38.6146C735.952 40.6699 731.555 41.8177 727.067 41.9757C722.579 42.1338 718.112 41.2982 713.985 39.5288C711.597 38.4775 709.163 37.0788 706.556 37.2982C703.948 37.5176 701.871 39.218 700.059 40.9549C695.782 45.189 692.43 50.2627 690.214 55.8559C689.564 57.5014 688.969 59.2475 687.707 60.4908C686.736 61.2864 685.688 61.9816 684.577 62.566C682.664 63.8348 681.024 65.4724 679.753 67.3828C678.482 69.2933 677.605 71.4381 677.175 73.6914C676.35 78.2233 676.816 82.8955 678.52 87.1755C679.551 90.1105 681.23 92.7758 683.434 94.9734C685.099 96.5366 687.094 97.7159 688.841 99.1694C691.687 101.59 693.857 104.705 695.14 108.212C696.423 111.719 696.774 115.498 696.161 119.181C701.029 120.296 705.696 115.944 707.141 111.163C708.587 106.382 707.754 101.281 707.681 96.2898C707.681 94.0775 707.992 91.4721 709.941 90.4116C711.561 89.4975 713.601 90.1557 715.193 91.0516C716.785 91.9475 718.359 93.0993 720.198 93.3187C722.943 93.6295 725.45 91.7006 726.988 89.4335C728.525 87.1663 729.403 84.5152 730.867 82.1932C732.78 79.1308 735.625 76.7813 738.416 74.4959C741.609 71.8631 744.711 68.9469 748.106 66.5883C750.146 65.1713 752.58 64.5131 754.584 63.087C760.605 58.7813 762.481 50.8828 762.481 43.9717Z" fill="#585268"/>
<path opacity="0.1" d="M733.393 106.73C733.393 106.73 733.905 106.848 734.792 107.095C734.367 106.85 733.884 106.724 733.393 106.73V106.73Z" fill="black"/>
<g opacity="0.1">
<path opacity="0.1" d="M705.275 108.211C706.693 103.429 705.888 98.3192 705.814 93.337C705.814 91.1247 706.125 88.5102 708.074 87.4497C709.694 86.5356 711.734 87.1938 713.327 88.0896C714.919 88.9855 716.492 90.1465 718.332 90.3568C721.077 90.6676 723.584 88.7478 725.121 86.4716C726.658 84.1953 727.537 81.5533 729.001 79.2313C730.913 76.1688 733.759 73.8194 736.549 71.534C739.743 68.9103 742.844 65.985 746.239 63.6264C748.28 62.2094 750.714 61.5512 752.717 60.1251C758.775 55.7919 760.65 47.8935 760.65 40.9915C760.446 39.668 760.036 38.3848 759.433 37.1885C761.047 39.0467 762.103 41.3217 762.48 43.7523C762.48 50.6543 760.65 58.5527 754.547 62.8859C752.544 64.312 750.11 64.9702 748.069 66.3872C744.674 68.7458 741.573 71.6711 738.379 74.2948C735.589 76.5802 732.743 78.9296 730.831 81.9921C729.367 84.3141 728.497 86.9652 726.951 89.2324C725.405 91.4995 722.888 93.4284 720.162 93.1176C718.332 92.9073 716.776 91.7372 715.157 90.8504C713.537 89.9637 711.497 89.3329 709.904 90.2105C707.955 91.271 707.608 93.8672 707.644 96.0978C707.718 101.08 708.559 106.154 707.105 110.971C705.65 115.789 701.011 120.113 696.125 118.98C696.278 118.122 696.373 117.254 696.408 116.383C700.48 116.036 704.058 112.315 705.275 108.211Z" fill="black"/>
<path opacity="0.1" d="M681.603 92.0114C683.269 93.5747 685.264 94.754 687.011 96.2075C688.935 97.8273 690.551 99.7816 691.778 101.976C690.906 100.869 689.922 99.8547 688.841 98.95C687.084 97.4965 685.099 96.3172 683.433 94.754C682.104 93.4778 680.981 92.0038 680.103 90.3842C680.567 90.9589 681.068 91.5025 681.603 92.0114V92.0114Z" fill="black"/>
</g>
<path opacity="0.1" d="M732.148 418.334C732.816 420.318 733.768 422.256 733.896 424.35C734.115 427.906 731.938 431.224 731.782 434.789C731.599 438.94 734.125 442.66 736.54 446.034C733.676 446.034 730.547 445.047 729.092 442.587C728.594 441.641 728.233 440.628 728.022 439.58C725.432 429.259 722.916 417.969 727.418 408.333C728.108 406.667 729.118 405.151 730.391 403.872C731.151 408.736 730.51 413.517 732.148 418.334Z" fill="black"/>
<path opacity="0.1" d="M803.72 345.493L811.323 335.245C813.153 332.768 815.047 330.19 815.706 327.182C816.42 323.882 815.587 320.463 815.477 317.126C815.477 316.752 815.477 316.368 815.477 315.984C815.375 315.763 815.259 315.55 815.13 315.344C814.16 313.753 813.089 310.581 811.964 306.339C810.855 307.44 809.994 308.764 809.438 310.224C805.897 318.854 809.173 328.983 806.245 337.832C805.403 340.374 804.031 342.806 803.72 345.493Z" fill="black"/>
<path opacity="0.1" d="M784.358 655.708C780.601 658.398 776.312 660.254 771.778 661.151C767.244 662.048 762.57 661.966 758.07 660.91" fill="black"/>
<path opacity="0.1" d="M721.36 657.217C719.437 659.017 717.164 660.404 714.682 661.292C712.2 662.18 709.563 662.549 706.932 662.378C704.302 662.207 701.735 661.498 699.389 660.296C697.044 659.093 694.971 657.423 693.297 655.388" fill="black"/>
<path opacity="0.1" d="M761.511 519.405C765.159 520.246 768.983 519.882 772.407 518.369C775.832 516.856 778.673 514.275 780.506 511.013" fill="black"/>
<path opacity="0.1" d="M718.14 542.506C712.342 542.931 706.575 541.349 701.807 538.027Z" fill="black"/>
<path opacity="0.1" d="M747.74 597.741C752.617 599.724 756.963 602.805 761.712 605.054C766.461 607.303 771.96 608.784 776.992 607.211" fill="black"/>
<path d="M484.347 611.298C527.362 611.298 562.232 601.25 562.232 588.855C562.232 576.46 527.362 566.412 484.347 566.412C441.333 566.412 406.462 576.46 406.462 588.855C406.462 601.25 441.333 611.298 484.347 611.298Z" fill="#5F5D7E"/>
<path opacity="0.1" d="M484.347 586.112C492.953 586.112 499.93 584.103 499.93 581.624C499.93 579.145 492.953 577.135 484.347 577.135C475.741 577.135 468.765 579.145 468.765 581.624C468.765 584.103 475.741 586.112 484.347 586.112Z" fill="black"/>
<path d="M491.695 463.239H475.682V581.624H491.695V463.239Z" fill="#5F5D7E"/>
<path opacity="0.1" d="M491.695 469.098V482.811C488.492 481.824 481.181 477.664 475.682 474.391V463.239H479.022L491.695 469.098Z" fill="black"/>
<path d="M453.969 411.697C453.969 411.697 506.838 398.104 519.996 387.929C533.154 377.754 584.824 425.639 577.998 443.694C571.172 461.748 546.32 474.849 546.32 474.849C546.32 474.849 477.585 486.02 465.892 462.717C454.198 439.415 453.969 411.697 453.969 411.697Z" fill="#474157"/>
<path opacity="0.1" d="M453.969 411.697C453.969 411.697 506.838 398.104 519.996 387.929C533.154 377.754 584.824 425.639 577.998 443.694C571.172 461.748 546.32 474.849 546.32 474.849C546.32 474.849 477.585 486.02 465.892 462.717C454.198 439.415 453.969 411.697 453.969 411.697Z" fill="black"/>
<path d="M449.394 406.212C449.394 406.212 502.263 392.619 515.421 382.444C528.578 372.269 580.249 420.154 573.423 438.208C566.597 456.263 541.745 469.363 541.745 469.363C541.745 469.363 473.01 480.535 461.317 457.232C449.623 433.93 449.394 406.212 449.394 406.212Z" fill="#474157"/>
<path opacity="0.1" d="M558.06 313.049C557.859 313.049 557.667 313.003 557.474 312.967C557.673 312.946 557.874 312.974 558.06 313.049V313.049Z" fill="black"/>
<path d="M401.43 365.733C396.15 364.444 381.593 363.256 374.666 386.466C373.053 391.858 371 397.107 368.526 402.163C361.874 415.793 353.301 443.812 391.045 449.983L481.63 470.552C481.63 470.552 530.125 476.494 533.327 474.209C536.53 471.923 536.072 466.895 536.072 466.895C536.072 466.895 482.545 466.895 472.022 450.44C461.5 433.985 461.042 411.588 461.042 411.588C461.042 411.588 462.36 377.005 407.057 366.958C405.19 366.62 403.306 366.19 401.43 365.733Z" fill="#474157"/>
<path opacity="0.1" d="M401.43 365.888C396.15 364.599 381.593 363.411 374.666 386.622C373.052 392.016 370.998 397.268 368.526 402.327C361.874 415.948 353.301 443.977 391.045 450.148L481.63 470.716C481.63 470.716 530.125 476.659 533.327 474.373C536.53 472.088 536.072 467.06 536.072 467.06C536.072 467.06 482.545 467.06 472.022 450.605C461.5 434.15 461.042 411.752 461.042 411.752C461.042 411.752 462.36 377.169 407.057 367.122C405.19 366.775 403.306 366.345 401.43 365.888Z" fill="black"/>
<path d="M591.32 342.083C590.796 338.737 589.074 335.694 586.474 333.52C583.874 331.346 580.573 330.189 577.183 330.263C565.554 330.482 532.348 331.89 512.108 340.831C507.662 342.796 503.205 344.707 498.63 346.316C494.495 347.788 489.563 350.137 487.12 353.51C484.677 356.884 427.187 401.047 509.995 443.556C509.995 443.556 554.372 456.181 571.757 426.562C571.757 426.562 584.11 394.74 583.195 383.724C582.28 372.708 591.43 342.997 591.43 342.997C591.43 342.997 591.412 342.687 591.32 342.083Z" fill="#474157"/>
<path opacity="0.1" d="M591.32 350.091C590.277 343.692 584.183 339.067 577.183 339.185C564.154 339.405 524.049 341.014 505.42 352.231C505.42 352.231 491.237 360.668 487.12 360.668C483.002 360.668 427.187 404.549 509.995 443.794C509.995 443.794 554.372 455.441 571.757 428.098C571.757 428.098 584.11 398.725 583.195 388.56C582.28 378.394 591.43 350.96 591.43 350.96C591.43 350.96 591.412 350.64 591.32 350.091Z" fill="black"/>
<path d="M547.052 443.584H532.412V474.73H547.052V443.584Z" fill="#5F5D7E"/>
<defs>
<linearGradient id="paint0_linear" x1="733.255" y1="689.972" x2="733.255" y2="30.7984" gradientUnits="userSpaceOnUse">
<stop stop-color="#808080" stop-opacity="0.25"/>
<stop offset="0.54" stop-color="#808080" stop-opacity="0.12"/>
<stop offset="1" stop-color="#808080" stop-opacity="0.1"/>
</linearGradient>
</defs>
</svg>
