<svg width="1015" height="690" viewBox="0 0 1015 690" fill="none" xmlns="http://www.w3.org/2000/svg">
<path opacity="0.3" d="M675.049 41.4704H609.679V65.8118H675.049V41.4704Z" fill="#006095"/>
<path opacity="0.3" d="M783.699 0H718.329V24.3413H783.699V0Z" fill="#006095"/>
<path opacity="0.3" d="M788.207 75.2778H722.837V99.6192H788.207V75.2778Z" fill="#006095"/>
<path opacity="0.3" d="M579.023 103.225H513.653V127.567H579.023V103.225Z" fill="#006095"/>
<path opacity="0.3" d="M558.285 203.295H492.915V227.637H558.285V203.295Z" fill="#006095"/>
<path opacity="0.3" d="M657.016 201.041H591.646V225.383H657.016V201.041Z" fill="#006095"/>
<path d="M718.329 12.0171L675.05 53.0773L722.837 87.4486" stroke="#3F3D56" stroke-miterlimit="10"/>
<path d="M609.679 53.0776L546.338 103.225" stroke="#3F3D56" stroke-miterlimit="10"/>
<path d="M525.6 203.276L546.338 127.566L624.331 201.041" stroke="#3F3D56" stroke-miterlimit="10"/>
<path opacity="0.3" d="M234.134 66.5466H168.764V90.8879H234.134V66.5466Z" fill="#006095"/>
<path opacity="0.3" d="M342.784 25.0761H277.414V49.4175H342.784V25.0761Z" fill="#006095"/>
<path opacity="0.3" d="M347.292 100.354H281.922V124.695H347.292V100.354Z" fill="#006095"/>
<path opacity="0.3" d="M138.108 128.301H72.738V152.643H138.108V128.301Z" fill="#006095"/>
<path opacity="0.3" d="M117.37 228.371H52V252.713H117.37V228.371Z" fill="#006095"/>
<path opacity="0.3" d="M216.101 226.118H150.731V250.459H216.101V226.118Z" fill="#006095"/>
<path d="M277.414 37.0933L234.134 78.1534L281.921 112.525" stroke="#3F3D56" stroke-miterlimit="10"/>
<path d="M168.764 78.1538L105.423 128.301" stroke="#3F3D56" stroke-miterlimit="10"/>
<path d="M84.6852 228.352L105.423 152.643L183.416 226.117" stroke="#3F3D56" stroke-miterlimit="10"/>
<path d="M347.292 112.525H421.425" stroke="#3F3D56" stroke-miterlimit="10"/>
<path d="M465.004 100.067H388.147V124.334H465.004V100.067Z" fill="#006095"/>
<path d="M465.104 112.2H513.653" stroke="#3F3D56" stroke-miterlimit="10"/>
<path d="M387.779 112.2L342.783 37.0936" stroke="#3F3D56" stroke-miterlimit="10"/>
<path d="M507.5 690C787.785 690 1015 639.408 1015 577C1015 514.592 787.785 464 507.5 464C227.215 464 0 514.592 0 577C0 639.408 227.215 690 507.5 690Z" fill="#2F94C3"/>
<path d="M611.032 657C807.628 657 967 621.508 967 577.727C967 533.946 807.628 498.454 611.032 498.454C414.436 498.454 255.064 533.946 255.064 577.727C255.064 621.508 414.436 657 611.032 657Z" fill="#2185B6"/>
<path d="M776.059 316.777L741.347 490.669H733.833L733.006 489.384L730.612 485.66L760.671 323.217L765.234 321.306L776.059 316.777Z" fill="#47465A"/>
<path opacity="0.1" d="M765.234 321.306L733.006 489.384L730.612 485.66L760.671 323.217L765.234 321.306Z" fill="black"/>
<path d="M828.305 553.643L819.381 556.519L817.212 557.22L814.349 550.78L765.234 326.766L770.34 325.622L781.069 323.217L828.305 553.643Z" fill="#47465A"/>
<path opacity="0.1" d="M819.381 556.519L817.212 557.22L814.349 550.78L765.234 326.766L770.34 325.622L819.381 556.519Z" fill="black"/>
<path d="M402.819 316.777L394.947 542.192L385.925 544.196L385.285 544.339L382.779 539.688L387.79 318.923L392.61 318.237L402.819 316.777Z" fill="#47465A"/>
<path opacity="0.1" d="M392.61 318.237L385.925 544.196L385.285 544.339L382.779 539.688L387.79 318.923L392.61 318.237Z" fill="black"/>
<path d="M449.698 621.983L440.365 623.593L439.32 623.772L436.458 617.689L391.01 323.217L392.32 322.82L399.241 320.713L449.698 621.983Z" fill="#47465A"/>
<path opacity="0.1" d="M440.365 623.593L439.32 623.772L436.458 617.689L391.01 323.217L392.32 322.82L440.365 623.593Z" fill="black"/>
<path d="M647.232 298.529L681.98 342.923C683.171 344.445 684.734 345.635 686.517 346.378C688.301 347.122 690.246 347.395 692.165 347.17L834.809 330.466C837.552 330.145 840.081 328.828 841.917 326.765C843.752 324.702 844.766 322.037 844.766 319.276V286.364L647.232 298.529Z" fill="#7A799C"/>
<path d="M764.25 305.685H773.912V319.628C773.912 320.58 773.534 321.493 772.86 322.166C772.187 322.839 771.274 323.217 770.322 323.217H767.84C766.888 323.217 765.975 322.839 765.302 322.166C764.628 321.493 764.25 320.58 764.25 319.628V305.685Z" fill="#47465A"/>
<path d="M391.01 326.795L425.759 371.19C426.949 372.711 428.512 373.901 430.295 374.645C432.079 375.388 434.024 375.661 435.943 375.436L578.587 358.732C581.33 358.411 583.859 357.094 585.695 355.031C587.53 352.969 588.544 350.304 588.544 347.542V314.63L391.01 326.795Z" fill="#7A799C"/>
<path d="M508.028 333.951H517.69V347.894C517.69 348.846 517.312 349.759 516.638 350.432C515.965 351.106 515.052 351.484 514.1 351.484H511.618C510.666 351.484 509.753 351.106 509.079 350.432C508.406 349.759 508.028 348.846 508.028 347.894V333.951H508.028Z" fill="#47465A"/>
<path d="M430.932 349.279L855.229 299.863C856.562 299.708 857.81 299.127 858.787 298.207C859.763 297.286 860.417 296.076 860.651 294.754C860.885 293.433 860.687 292.072 860.086 290.872C859.485 289.672 858.513 288.698 857.315 288.094L781.415 249.929C766.466 242.411 749.681 239.32 733.034 241.017L356.078 279.448C354.73 279.589 353.449 280.106 352.382 280.941C351.315 281.776 350.505 282.895 350.044 284.169C349.583 285.444 349.49 286.822 349.776 288.146C350.063 289.471 350.716 290.688 351.662 291.658L395.559 336.689C400.102 341.349 405.652 344.907 411.784 347.089C417.915 349.272 424.466 350.021 430.932 349.279V349.279Z" fill="#47465A"/>
<path d="M853.355 432.347C853.355 432.347 848.703 454.173 846.556 460.256C845.504 463.233 840.422 465.956 834.79 468.038C829.796 469.898 824.626 471.247 819.359 472.063C813.276 472.779 735.264 460.614 697.332 452.384C671.777 446.842 668.474 440.484 669.04 436.927C669.222 435.868 669.73 434.893 670.493 434.136C670.493 434.136 708.067 408.732 721.308 396.567C734.548 384.402 760.671 394.062 789.3 399.072C817.928 404.081 853.355 432.347 853.355 432.347Z" fill="#47465A"/>
<path d="M901.909 293.166L897.371 290.657C897.371 290.657 892.471 294.263 888.48 309.456C884.488 324.648 895.939 309.621 895.939 309.621L900.949 299.245L901.909 293.166Z" fill="#47465A"/>
<path d="M897.371 290.657C897.371 290.657 914.906 302.107 855.86 325.722C855.86 325.722 823.767 343.814 827.945 418.344C828.143 421.696 829.163 424.947 830.916 427.81C837.008 437.829 850.063 463.19 828.305 466.339V472.063C828.305 472.063 867.669 452.384 871.963 435.567C876.258 418.751 890.572 325.364 897.729 316.777C904.886 308.19 909.538 294.593 897.371 290.657Z" fill="#47465A"/>
<path opacity="0.1" d="M834.79 468.038C829.796 469.898 824.626 471.247 819.359 472.063C813.276 472.779 735.264 460.614 697.332 452.384C671.777 446.842 668.474 440.484 669.04 436.927C685.837 442.67 740.381 460.896 759.956 462.403C783.216 464.192 827.654 469.165 831.022 465.784C832.317 464.482 833.645 465.856 834.79 468.038Z" fill="black"/>
<path d="M630.413 616.974L664.409 461.687C664.409 461.687 670.493 445.228 684.449 445.944L697.331 452.384C697.331 452.384 675.86 447.375 671.208 463.834C666.556 480.293 636.854 616.974 636.854 616.974H630.413Z" fill="#47465A"/>
<path d="M712.004 546.129L725.602 451.311H731.686L717.729 546.129H712.004Z" fill="#47465A"/>
<path d="M842.262 638.8L829.379 490.669C829.379 490.669 829.379 478.146 835.82 472.063C842.262 465.981 863.056 448.629 863.056 448.629C863.056 448.629 868.385 447.375 872.679 459.54C876.973 471.706 906.675 593.359 906.675 593.359L900.949 595.863L864.091 455.604L838.683 479.577C838.683 479.577 833.673 488.522 836.178 496.752C838.683 504.981 847.987 638.8 847.987 638.8H842.262Z" fill="#47465A"/>
<path d="M802.54 468.486L834.747 477.788L841.904 470.99L823.296 468.486H802.54Z" fill="#47465A"/>
<path d="M516.225 207.327L521.447 285.648L635.602 274.556L631.06 197.993C630.999 196.968 630.733 195.965 630.279 195.044C629.825 194.123 629.19 193.301 628.414 192.629C627.637 191.956 626.734 191.446 625.757 191.128C624.78 190.81 623.75 190.69 622.726 190.776L523.264 199.141C521.252 199.31 519.386 200.263 518.07 201.794C516.753 203.325 516.091 205.312 516.225 207.327Z" fill="#7A799C"/>
<path d="M673.892 297.097L560.095 309.51L555.801 309.978L522.521 288.511V283.859L635.602 273.676L673.892 297.097Z" fill="#7A799C"/>
<path opacity="0.1" d="M560.095 309.51L555.801 309.978L522.521 288.511V284.346L560.095 309.51Z" fill="black"/>
<path d="M523.952 206.573L527.889 276.345L628.088 267.042L624.509 199.059L523.952 206.573Z" fill="#9493B6"/>
<path opacity="0.1" d="M583.714 295.666L595.88 303.896L632.739 300.318L620.214 292.446L583.714 295.666Z" fill="black"/>
<path d="M533.972 285.648L549.359 297.097L647.769 287.795L630.235 276.345L533.972 285.648Z" fill="#9493B6"/>
<path d="M781.248 179.917H708.604V252.551H781.248V179.917Z" fill="#FF6584"/>
<path opacity="0.1" d="M781.248 179.917H708.604V252.551H781.248V179.917Z" fill="black"/>
<path d="M733.622 213.53C733.622 213.53 743.869 241.281 733.622 246.404C723.374 251.527 770.342 246.404 770.342 246.404L783.579 235.731C783.579 235.731 753.69 227.192 757.96 207.553C762.23 187.915 733.622 213.53 733.622 213.53Z" fill="#FBBEBE"/>
<path opacity="0.1" d="M733.622 213.53C733.622 213.53 743.869 241.281 733.622 246.404C723.374 251.527 770.342 246.404 770.342 246.404L783.579 235.731C783.579 235.731 753.69 227.192 757.96 207.553C762.23 187.915 733.622 213.53 733.622 213.53Z" fill="black"/>
<path d="M649.505 491.888C649.505 491.888 687.934 546.108 681.529 561.05C675.124 575.993 678.54 585.385 665.731 590.508C652.921 595.632 649.505 605.024 660.607 604.597C671.708 604.17 686.226 601.182 688.361 597.339C690.496 593.497 695.62 575.139 702.878 572.577C710.137 570.016 723.801 560.196 713.98 548.242C704.159 536.288 679.415 492.258 681.326 487.803C683.237 483.349 649.505 491.888 649.505 491.888Z" fill="#FBBEBE"/>
<path d="M729.779 384.729C729.779 384.729 650.359 389.852 629.864 409.064C609.369 428.276 647.797 500 652.067 500.853C656.337 501.707 689.642 498.292 688.361 488.899C687.08 479.507 664.45 441.083 664.45 441.083C664.45 441.083 693.912 430.41 710.137 427.849C726.363 425.287 744.296 413.333 744.296 413.333L729.779 384.729Z" fill="#9493B6"/>
<path d="M693.485 372.775C693.485 372.775 694.766 420.164 706.722 421.872C718.677 423.579 706.722 385.583 706.722 385.583L706.294 371.067L693.485 372.775Z" fill="#FBBEBE"/>
<path d="M729.779 248.539C729.779 248.539 707.576 242.135 703.306 259.212C699.036 276.289 697.755 335.205 697.755 335.205L690.069 382.167C690.069 382.167 704.16 377.898 707.149 380.033L725.082 357.405L729.779 248.539Z" fill="#006095"/>
<path opacity="0.1" d="M729.779 248.539C729.779 248.539 707.576 242.135 703.306 259.212C699.036 276.289 697.755 335.205 697.755 335.205L690.069 382.167C690.069 382.167 704.16 377.898 707.149 380.033L725.082 357.405L729.779 248.539Z" fill="black"/>
<path d="M760.117 500.98C760.117 500.98 775.039 530.311 784.006 529.884C792.973 529.458 801.512 523.907 805.782 541.412C810.052 558.916 804.928 554.219 810.052 564.466C815.176 574.712 816.03 592.643 806.209 596.912C796.389 601.182 787.422 601.608 786.995 596.912C786.568 592.216 795.535 592.216 785.287 575.566C775.039 558.916 753.263 528.604 744.296 525.615C735.33 522.627 760.117 500.98 760.117 500.98Z" fill="#FBBEBE"/>
<path d="M798.951 367.225C798.951 367.225 829.694 418.456 809.625 433.399C789.557 448.341 729.779 476.945 729.779 476.945C729.779 476.945 761.803 498.719 763.511 505.977C765.219 513.234 748.139 532.873 742.161 533.3C736.184 533.727 718.677 513.661 699.89 508.538C681.102 503.415 669.574 466.699 690.069 453.037C710.564 439.376 729.779 416.749 729.779 416.749L723.804 383.88L798.951 367.225Z" fill="#9493B6"/>
<path d="M772.301 196.376C772.301 214.532 753.701 229.54 735.543 229.54C726.823 229.54 718.461 226.077 712.295 219.912C706.129 213.747 702.665 205.385 702.665 196.667C702.665 187.948 706.129 179.587 712.295 173.422C718.461 167.257 726.823 163.793 735.543 163.793C753.701 163.793 772.301 178.221 772.301 196.376Z" fill="#FBBEBE"/>
<path d="M743.869 243.842C743.869 243.842 773.331 231.035 773.331 229.327C773.331 227.619 790.411 233.169 794.254 236.585C798.097 240 800.232 239.573 802.793 246.404C805.355 253.235 789.984 316.847 789.984 316.847C789.984 316.847 798.524 365.944 803.22 370.64C807.917 375.336 765.219 382.167 765.219 382.167C765.219 382.167 737.037 387.29 732.341 389.425C727.644 391.56 719.104 394.548 720.812 389.425C722.52 384.302 729.779 380.46 717.396 374.056C717.396 374.056 721.666 353.136 717.396 343.744C713.126 334.351 693.485 300.197 709.283 275.435C725.082 250.673 732.341 241.708 732.341 241.708C732.341 241.708 737.891 246.404 743.869 243.842Z" fill="#006095"/>
<path d="M753.263 360.394C753.263 360.394 719.958 375.164 709.924 376.531C699.89 377.898 669.574 385.583 686.226 392.414C702.879 399.244 728.071 388.998 728.071 388.998L763.511 374.056L753.263 360.394Z" fill="#FBBEBE"/>
<path opacity="0.1" d="M789.121 242.533C789.121 242.533 801.419 236.585 804.835 257.504C808.251 278.424 820.206 344.598 804.835 354.417C789.463 364.236 754.023 380.033 754.023 380.033C754.023 380.033 733.101 365.944 742.922 360.821C752.742 355.698 776.227 341.182 779.643 336.059C783.059 330.936 786.51 273.751 780.532 264.359C774.554 254.966 789.121 242.533 789.121 242.533Z" fill="black"/>
<path d="M788.276 237.438C788.276 237.438 805.356 236.585 808.771 257.504C812.187 278.424 824.143 344.598 808.771 354.417C793.4 364.236 757.96 380.033 757.96 380.033C757.96 380.033 737.038 365.944 746.858 360.821C756.679 355.698 780.163 341.182 783.579 336.059C786.995 330.936 781.017 277.57 775.039 268.177C769.062 258.785 788.276 237.438 788.276 237.438Z" fill="#006095"/>
<path d="M727.444 141.328C722.202 142.042 716.58 143.959 713.942 148.544C712.652 150.788 712.234 153.42 711.24 155.809C708.496 162.404 701.833 166.342 697.022 171.622C690.752 178.503 687.639 188.873 691.337 197.416C692.768 200.724 695.094 203.558 696.857 206.701C701.777 215.473 702.039 226.006 702.179 236.062L702.454 255.832C702.496 258.851 702.53 261.931 701.621 264.81C700.712 267.689 698.682 270.386 695.802 271.295C698.979 272.396 702.433 272.404 705.615 271.318C708.797 270.231 711.524 268.113 713.364 265.299C713.757 267.789 713.533 270.337 712.712 272.721C711.891 275.104 710.497 277.249 708.654 278.969C716.482 277.126 723.046 271.433 727.182 264.536C731.318 257.64 733.235 249.618 734.095 241.623C734.549 237.395 734.71 233.022 733.373 228.984C732.432 226.14 730.791 223.591 729.233 221.032C725.216 214.437 721.598 207.422 720.303 199.808C719.009 192.195 720.309 183.842 725.253 177.91C727.151 175.617 729.541 173.782 732.247 172.542C734.952 171.302 737.903 170.688 740.879 170.746C743.854 170.861 746.75 171.737 749.29 173.292C751.83 174.846 753.928 177.026 755.383 179.624C756.525 181.773 758.151 184.687 760.466 183.932C760.894 183.75 761.313 183.545 761.719 183.317C764.3 182.142 767.232 184.459 768.37 187.056C771.96 195.248 765.346 204.19 764.662 213.107C764.027 221.402 768.652 229.226 774.181 235.443C783.731 246.137 796.205 253.8 810.063 257.485C808.034 256.974 806.215 255.844 804.858 254.252C810.492 254.478 816.132 254.005 821.65 252.845C815.642 248.318 809.592 243.752 804.576 238.146C799.56 232.54 795.588 225.757 794.506 218.313C793.054 208.323 796.776 197.505 792.521 188.351C788.631 179.981 778.985 175.304 775.462 166.774C771.883 158.109 769.563 150.582 760.089 146.81C749.748 142.693 738.617 139.808 727.444 141.328Z" fill="#FF6584"/>
</svg>
