<svg width="20" height="24" viewBox="0 0 20 24" fill="none" xmlns="http://www.w3.org/2000/svg">
<path d="M15.5223 10.0438L14.885 4.49999H17.0833C17.7737 4.49999 18.3333 3.99632 18.3333 3.375V1.125C18.3333 0.503671 17.7737 0 17.0833 0H2.91666C2.2263 0 1.66666 0.503671 1.66666 1.125V3.375C1.66666 3.99632 2.2263 4.49999 2.91666 4.49999H5.11493L4.4777 10.0438C1.9513 11.1009 0 12.9966 0 15.375C0 15.9963 0.559634 16.5 1.25 16.5H8.33331V21.3753C8.33331 21.4335 8.34836 21.4909 8.37732 21.543L9.62732 23.793C9.7805 24.0687 10.2192 24.0693 10.3727 23.793L11.6227 21.543C11.6516 21.4909 11.6667 21.4335 11.6667 21.3753V16.5H18.75C19.4404 16.5 20 15.9963 20 15.375C19.9999 12.9758 18.0217 11.0897 15.5223 10.0438V10.0438Z" fill="#2F94C3"/>
</svg>
