<svg width="50" height="50" viewBox="0 0 50 50" fill="none" xmlns="http://www.w3.org/2000/svg">
<rect width="50" height="50" rx="12" fill="#7FD6FF"/>
<path d="M25 13C18.371 13 13 18.371 13 25C13 31.629 18.371 37 25 37C31.629 37 37 31.629 37 25C37 18.371 31.629 13 25 13ZM29.4753 28.1452L28.5076 29.3548C28.4441 29.4342 28.3655 29.5004 28.2765 29.5494C28.1874 29.5985 28.0896 29.6295 27.9885 29.6407C27.8875 29.6519 27.7852 29.6432 27.6875 29.6149C27.5899 29.5866 27.4987 29.5393 27.4194 29.4758L24.1774 27.07C23.9509 26.8886 23.7681 26.6587 23.6424 26.3971C23.5168 26.1355 23.4516 25.849 23.4516 25.5589V18.0323C23.4516 17.8269 23.5332 17.63 23.6784 17.4848C23.8236 17.3396 24.0205 17.2581 24.2258 17.2581H25.7742C25.9795 17.2581 26.1764 17.3396 26.3216 17.4848C26.4668 17.63 26.5484 17.8269 26.5484 18.0323V25L29.3548 27.0565C29.4343 27.12 29.5004 27.1986 29.5495 27.2877C29.5985 27.3768 29.6295 27.4747 29.6407 27.5758C29.6519 27.6769 29.643 27.7793 29.6147 27.877C29.5863 27.9746 29.5389 28.0658 29.4753 28.1452Z" fill="#2F94C3"/>
</svg>
