<svg width="50" height="50" viewBox="0 0 50 50" fill="none" xmlns="http://www.w3.org/2000/svg">
<rect width="50" height="50" rx="12" fill="#7FD6FF"/>
<path d="M37 25C37 31.6274 31.6274 37 25 37C18.3726 37 13 31.6274 13 25C13 18.3726 18.3726 13 25 13C31.6274 13 37 18.3726 37 25ZM23.612 31.3539L32.5152 22.4507C32.8175 22.1484 32.8175 21.6581 32.5152 21.3558L31.4203 20.261C31.118 19.9586 30.6278 19.9586 30.3254 20.261L23.0645 27.5218L19.6746 24.1319C19.3722 23.8296 18.882 23.8296 18.5797 24.1319L17.4848 25.2267C17.1825 25.5291 17.1825 26.0193 17.4848 26.3216L22.5171 31.3539C22.8194 31.6562 23.3096 31.6562 23.612 31.3539V31.3539Z" fill="#2F94C3"/>
</svg>
