<svg width="50" height="50" viewBox="0 0 50 50" fill="none" xmlns="http://www.w3.org/2000/svg">
<rect width="50" height="50" rx="12" fill="#7FD6FF"/>
<path d="M35.7299 32.9068C36.499 34.2816 35.5336 36 33.9975 36H14.0023C12.4632 36 11.5023 34.2789 12.2699 32.9068L22.2676 15.0306C23.0371 13.6552 24.9643 13.6577 25.7324 15.0306L35.7299 32.9068V32.9068ZM24 29.2109C22.9415 29.2109 22.0833 30.0959 22.0833 31.1875C22.0833 32.2791 22.9415 33.1641 24 33.1641C25.0585 33.1641 25.9167 32.2791 25.9167 31.1875C25.9167 30.0959 25.0585 29.2109 24 29.2109ZM22.1803 22.1062L22.4894 27.95C22.5038 28.2234 22.7231 28.4375 22.9886 28.4375H25.0114C25.2769 28.4375 25.4962 28.2234 25.5106 27.95L25.8197 22.1062C25.8353 21.8109 25.6073 21.5625 25.3205 21.5625H22.6795C22.3927 21.5625 22.1647 21.8109 22.1803 22.1062V22.1062Z" fill="#2F94C3"/>
<path d="M36.7299 32.9068C37.499 34.2816 36.5336 36 34.9975 36H15.0023C13.4632 36 12.5023 34.2789 13.2699 32.9068L23.2676 15.0306C24.0371 13.6552 25.9643 13.6577 26.7324 15.0306L36.7299 32.9068V32.9068ZM25 29.2109C23.9415 29.2109 23.0833 30.0959 23.0833 31.1875C23.0833 32.2791 23.9415 33.1641 25 33.1641C26.0585 33.1641 26.9167 32.2791 26.9167 31.1875C26.9167 30.0959 26.0585 29.2109 25 29.2109ZM23.1803 22.1062L23.4894 27.95C23.5038 28.2234 23.7231 28.4375 23.9886 28.4375H26.0114C26.2769 28.4375 26.4962 28.2234 26.5106 27.95L26.8197 22.1062C26.8353 21.8109 26.6073 21.5625 26.3205 21.5625H23.6795C23.3927 21.5625 23.1647 21.8109 23.1803 22.1062V22.1062Z" fill="#2F94C3"/>
</svg>
