<svg width="20" height="24" viewBox="0 0 20 24" fill="none" xmlns="http://www.w3.org/2000/svg">
<path fill-rule="evenodd" clip-rule="evenodd" d="M13.3333 3H17.5C18.8802 3 20 4.00781 20 5.25V21.75C20 22.9922 18.8802 24 17.5 24H2.5C1.11979 24 0 22.9922 0 21.75V5.25C0 4.00781 1.11979 3 2.5 3H6.66667C6.66667 1.34531 8.16146 0 10 0C11.8385 0 13.3333 1.34531 13.3333 3ZM11.25 3C11.25 2.37656 10.6927 1.875 10 1.875C9.30729 1.875 8.75 2.37656 8.75 3C8.75 3.62344 9.30729 4.125 10 4.125C10.6927 4.125 11.25 3.62344 11.25 3ZM14.3435 12.139L11.7375 14.4844L14.3435 16.8298C14.6633 17.1178 14.6633 17.5845 14.3435 17.8723L13.7643 18.3935C13.4445 18.6813 12.9258 18.6813 12.606 18.3935L10 16.0481L7.39401 18.3935C7.07422 18.6813 6.55547 18.6813 6.23568 18.3935L5.65651 17.8723C5.33672 17.5842 5.33672 17.1176 5.65651 16.8298L8.2625 14.4844L5.65651 12.139C5.33672 11.8509 5.33672 11.3843 5.65651 11.0965L6.23568 10.5752C6.55573 10.2874 7.07422 10.2874 7.39401 10.5752L10 12.9206L12.606 10.5752C12.926 10.2874 13.4445 10.2874 13.7643 10.5752L14.3435 11.0965C14.6633 11.3845 14.6633 11.8512 14.3435 12.139Z" fill="#2F94C3"/>
</svg>
