<svg width="100" height="100" viewBox="0 0 100 100" fill="none" xmlns="http://www.w3.org/2000/svg">
<path d="M0 50C0 22.3858 22.3858 0 50 0C77.6142 0 100 22.3858 100 50C100 77.6142 77.6142 100 50 100C22.3858 100 0 77.6142 0 50Z" fill="#80D7FF"/>
<path d="M50.125 50C58.6863 50 65.625 43.0613 65.625 34.5C65.625 25.9387 58.6863 19 50.125 19C41.5637 19 34.625 25.9387 34.625 34.5C34.625 43.0613 41.5637 50 50.125 50ZM60.975 53.875H58.9527C56.2645 55.1102 53.2734 55.8125 50.125 55.8125C46.9766 55.8125 43.9977 55.1102 41.2973 53.875H39.275C30.2898 53.875 23 61.1648 23 70.15V75.1875C23 78.3965 25.6035 81 28.8125 81H71.4375C74.6465 81 77.25 78.3965 77.25 75.1875V70.15C77.25 61.1648 69.9602 53.875 60.975 53.875Z" fill="#2F94C3"/>
</svg>
