<svg width="512" height="512" viewBox="0 0 512 512" fill="none" xmlns="http://www.w3.org/2000/svg">
<circle cx="256" cy="256" r="241" fill="white" stroke="#2F94C3" stroke-width="30"/>
<path d="M259.837 291.556C308.929 291.556 348.726 243.799 348.726 184.889C348.726 125.979 308.929 78.2224 259.837 78.2224C210.745 78.2224 170.948 125.979 170.948 184.889C170.948 243.799 210.745 291.556 259.837 291.556Z" fill="#2F94C3"/>
<path d="M434.059 382.222C418.059 350.222 387.837 323.556 348.726 307.556C338.059 304 325.614 304 316.726 309.333C298.948 320 281.17 325.333 259.837 325.333C238.503 325.333 220.726 320 202.948 309.333C194.059 305.778 181.614 304 170.948 309.333C131.837 325.333 101.614 352 85.6145 384C73.17 407.111 92.7256 433.778 119.392 433.778H400.281C426.948 433.778 446.503 407.111 434.059 382.222Z" fill="#2F94C3"/>
<ellipse cx="255.5" cy="438.5" rx="154.5" ry="50.5" fill="#2F94C3"/>
</svg>
